<?xml version="1.0" encoding="utf-8"?>
<!-- Generator: Adobe Illustrator 25.0.1, SVG Export Plug-In . SVG Version: 6.00 Build 0)  -->
<svg version="1.1" id="Capa_1" focusable="false" xmlns="http://www.w3.org/2000/svg" xmlns:xlink="http://www.w3.org/1999/xlink"
	 x="0px" y="0px" viewBox="0 0 576 395.1" style="enable-background:new 0 0 576 395.1;" xml:space="preserve">
<style type="text/css">
	.st0{fill:#A8A8A8;}
	.st1{fill:#606060;}
	.st2{fill:#FFFFFF;}
</style>
<g>
	<path class="st0" d="M527.9,0H48.1C21.5,0,0,19,0,42.3v310.5c0,23.4,21.5,42.3,48.1,42.3h479.8c26.6,0,48.1-19,48.1-42.3V42.3
		C576,19,554.5,0,527.9,0z"/>
	<path class="st1" d="M132,283.3H60c-6.6,0-12,4.8-12,10.6v35.3c0,5.8,5.4,10.6,12,10.6h72c6.6,0,12-4.8,12-10.6v-35.3
		C144,288.1,138.6,283.3,132,283.3z"/>
	<path class="st1" d="M257.8,281.1h-72c-6.6,0-12,4.8-12,10.6V327c0,5.8,5.4,10.6,12,10.6h72c6.6,0,12-4.8,12-10.6v-35.3
		C269.8,285.9,264.4,281.1,257.8,281.1z"/>
	<path class="st1" d="M385.8,281.1h-72c-6.6,0-12,4.8-12,10.6V327c0,5.8,5.4,10.6,12,10.6h72c6.6,0,12-4.8,12-10.6v-35.3
		C397.8,285.9,392.4,281.1,385.8,281.1z"/>
	<path class="st1" d="M513.8,281.1h-72c-6.6,0-12,4.8-12,10.6V327c0,5.8,5.4,10.6,12,10.6h72c6.6,0,12-4.8,12-10.6v-35.3
		C525.8,285.9,520.4,281.1,513.8,281.1z"/>
	<path class="st2" d="M243.3,48H75.9C60.6,48,48,59.1,48,72.6v82c0,13.5,12.6,24.6,27.9,24.6h167.4c15.3,0,27.9-11.1,27.9-24.6v-82
		C271.2,59.1,258.6,48,243.3,48z"/>
</g>
</svg>
