<?xml version="1.0" encoding="utf-8"?>
<!-- Generator: Adobe Illustrator 25.0.1, SVG Export Plug-In . SVG Version: 6.00 Build 0)  -->
<svg version="1.1" id="Capa_1" xmlns="http://www.w3.org/2000/svg" xmlns:xlink="http://www.w3.org/1999/xlink" x="0px" y="0px"
	 viewBox="0 0 1903.5 424.6" style="enable-background:new 0 0 1903.5 424.6;" xml:space="preserve">
<style type="text/css">
	.st0{fill:#5ACAFB;}
	.st1{fill:#86A6A6;}
	.st2{fill:#00C700;}
	.st3{fill:#DB2C00;}
	.st4{fill:#61DAFB;}
	.st5{fill:#53BBFB;}
	.st6{fill:#3F8CFB;}
	.st7{fill:#469CFB;}
	.st8{fill:#4CABFB;}
	.st9{fill:#FFFFFF;}
	.st10{fill:#387DFB;}
	.st11{fill:#316DFB;}
	.st12{fill:#78BBED;}
	.st13{fill:#8E9CDE;}
	.st14{fill:#A57DD0;}
	.st15{fill:#BB5DC1;}
	.st16{fill:#D23EB3;}
	.st17{fill:#E81FA4;}
	.st18{fill:#FF0096;}
	.st19{fill:url(#SVGID_1_);}
	.st20{fill:#454545;}
	.st21{fill:none;stroke:url(#SVGID_2_);stroke-width:3;stroke-linecap:round;stroke-linejoin:round;stroke-miterlimit:10;}
	.st22{fill:url(#SVGID_3_);}
	.st23{fill:none;stroke:url(#SVGID_4_);stroke-width:4;stroke-linecap:round;stroke-linejoin:round;stroke-miterlimit:10;}
	.st24{fill:none;stroke:url(#SVGID_5_);stroke-width:3;stroke-linecap:round;stroke-linejoin:round;stroke-miterlimit:10;}
	.st25{fill:url(#SVGID_6_);}
	.st26{fill:none;stroke:url(#SVGID_7_);stroke-width:3;stroke-linecap:round;stroke-linejoin:round;stroke-miterlimit:10;}
	.st27{fill:url(#SVGID_8_);}
	.st28{fill:url(#SVGID_9_);}
	.st29{fill:none;stroke:url(#SVGID_10_);stroke-width:3;stroke-linecap:round;stroke-linejoin:round;stroke-miterlimit:10;}
	.st30{fill:url(#SVGID_11_);}
	.st31{fill:url(#SVGID_12_);}
	.st32{fill:none;stroke:url(#SVGID_13_);stroke-width:3;stroke-linecap:round;stroke-linejoin:round;stroke-miterlimit:10;}
	.st33{fill:url(#SVGID_14_);}
	.st34{fill:url(#SVGID_15_);}
	.st35{fill:none;stroke:url(#SVGID_16_);stroke-width:3;stroke-linecap:round;stroke-linejoin:round;stroke-miterlimit:10;}
	.st36{fill:url(#SVGID_17_);}
	.st37{fill:url(#SVGID_18_);}
	.st38{fill:url(#SVGID_19_);}
	.st39{fill:url(#SVGID_20_);}
	.st40{fill:url(#SVGID_21_);}
	.st41{fill:url(#SVGID_22_);}
	.st42{fill:url(#SVGID_23_);}
	.st43{fill:url(#SVGID_24_);}
	.st44{fill:url(#SVGID_25_);}
	.st45{fill:url(#SVGID_26_);}
	.st46{fill:url(#SVGID_27_);}
	.st47{fill:url(#SVGID_28_);}
	.st48{fill:url(#SVGID_29_);}
	.st49{fill:url(#SVGID_30_);}
	.st50{fill:url(#SVGID_31_);}
	.st51{fill:url(#SVGID_32_);}
	.st52{fill:url(#SVGID_33_);}
	.st53{fill:url(#SVGID_34_);}
	.st54{fill:url(#SVGID_35_);}
	.st55{fill:url(#SVGID_36_);}
	.st56{fill:url(#SVGID_37_);}
	.st57{fill:url(#SVGID_38_);}
	.st58{fill:url(#SVGID_39_);}
	.st59{fill:url(#SVGID_40_);}
	.st60{fill:none;stroke:url(#SVGID_41_);stroke-width:3;stroke-linecap:round;stroke-linejoin:round;stroke-miterlimit:10;}
	.st61{fill:url(#SVGID_42_);}
	.st62{fill:url(#SVGID_43_);}
	.st63{fill:none;stroke:url(#SVGID_44_);stroke-width:3;stroke-linecap:round;stroke-linejoin:round;stroke-miterlimit:10;}
	.st64{fill:url(#SVGID_45_);}
	.st65{fill:url(#SVGID_46_);}
	.st66{fill:url(#SVGID_47_);}
	.st67{fill:url(#SVGID_48_);}
	.st68{fill:url(#SVGID_49_);}
	.st69{fill:url(#SVGID_50_);}
	.st70{fill:url(#SVGID_51_);}
	.st71{fill:url(#SVGID_52_);}
	.st72{fill:url(#SVGID_53_);}
	.st73{fill:none;stroke:url(#SVGID_54_);stroke-width:3;stroke-linecap:round;stroke-linejoin:round;stroke-miterlimit:10;}
	.st74{fill:url(#SVGID_55_);}
	.st75{fill:url(#SVGID_56_);}
	.st76{fill:url(#SVGID_57_);}
	.st77{fill:url(#SVGID_58_);}
	.st78{fill:url(#SVGID_59_);}
	.st79{fill:url(#SVGID_60_);}
	.st80{fill:url(#SVGID_61_);}
	.st81{fill:none;stroke:url(#SVGID_62_);stroke-width:3;stroke-linecap:round;stroke-linejoin:round;stroke-miterlimit:10;}
	.st82{fill:#AB68BE;}
	.st83{fill:#00FF00;}
	.st84{fill:#FF4500;}
	.st85{fill:url(#SVGID_63_);}
	.st86{fill:url(#SVGID_64_);}
	.st87{fill:url(#SVGID_65_);}
	.st88{fill:url(#SVGID_66_);}
	.st89{fill:url(#SVGID_67_);}
	.st90{fill:url(#SVGID_68_);}
	.st91{fill:url(#SVGID_69_);}
	.st92{fill:url(#SVGID_70_);}
	.st93{fill:url(#SVGID_71_);}
	.st94{fill:url(#SVGID_72_);}
	.st95{fill:#E6E6E6;}
	.st96{fill:url(#SVGID_73_);}
	.st97{fill:url(#SVGID_74_);}
	.st98{fill:url(#SVGID_75_);}
	.st99{fill:url(#SVGID_76_);}
	.st100{fill:url(#SVGID_77_);}
	.st101{fill:url(#SVGID_78_);}
	.st102{fill:url(#SVGID_79_);}
	.st103{fill:url(#SVGID_80_);}
	.st104{fill:url(#SVGID_81_);}
	.st105{fill:#61D9FB;}
	.st106{fill:#60D8FB;}
	.st107{fill:#60D7FB;}
	.st108{fill:#5FD6FB;}
	.st109{fill:#5FD5FB;}
	.st110{fill:#5ED4FB;}
	.st111{fill:#5ED3FB;}
	.st112{fill:#5DD2FB;}
	.st113{fill:#5DD1FB;}
	.st114{fill:#5DD0FB;}
	.st115{fill:#5CCFFB;}
	.st116{fill:#5CCEFB;}
	.st117{fill:#5BCDFB;}
	.st118{fill:#5BCCFB;}
	.st119{fill:#5ACBFB;}
	.st120{fill:#5AC9FB;}
	.st121{fill:#59C8FB;}
	.st122{fill:#59C7FB;}
	.st123{fill:#58C6FB;}
	.st124{fill:#58C5FB;}
	.st125{fill:#57C4FB;}
	.st126{fill:#57C3FB;}
	.st127{fill:#56C2FB;}
	.st128{fill:#56C1FB;}
	.st129{fill:#55C0FB;}
	.st130{fill:#55BFFB;}
	.st131{fill:#54BEFB;}
	.st132{fill:#54BDFB;}
	.st133{fill:#53BCFB;}
	.st134{fill:#53BAFB;}
	.st135{fill:#52B9FB;}
	.st136{fill:#52B8FB;}
	.st137{fill:#51B7FB;}
	.st138{fill:#51B6FB;}
	.st139{fill:#50B5FB;}
	.st140{fill:#50B4FB;}
	.st141{fill:#50B3FB;}
	.st142{fill:#4FB2FB;}
	.st143{fill:#4FB1FB;}
	.st144{fill:#4EB0FB;}
	.st145{fill:#4EAFFB;}
	.st146{fill:#4DAEFB;}
	.st147{fill:#4DADFB;}
	.st148{fill:#4CACFB;}
	.st149{fill:#4CAAFB;}
	.st150{fill:#4BA9FB;}
	.st151{fill:#4BA8FB;}
	.st152{fill:#4AA7FB;}
	.st153{fill:#4AA6FB;}
	.st154{fill:#49A5FB;}
	.st155{fill:#49A4FB;}
	.st156{fill:#49A3FB;}
	.st157{fill:#48A2FB;}
	.st158{fill:#48A1FB;}
	.st159{fill:#47A0FB;}
	.st160{fill:#479FFB;}
	.st161{fill:#469EFB;}
	.st162{fill:#469DFB;}
	.st163{fill:#459BFB;}
	.st164{fill:#459AFB;}
	.st165{fill:#4499FB;}
	.st166{fill:#4498FB;}
	.st167{fill:#4397FB;}
	.st168{fill:#4396FB;}
	.st169{fill:#4395FB;}
	.st170{fill:#4294FB;}
	.st171{fill:#4293FB;}
	.st172{fill:#4192FB;}
	.st173{fill:#4191FB;}
	.st174{fill:#4090FB;}
	.st175{fill:#408FFB;}
	.st176{fill:#408EFB;}
	.st177{fill:#3F8DFB;}
	.st178{fill:#3E8CFB;}
	.st179{fill:#3E8BFB;}
	.st180{fill:#3D8AFB;}
	.st181{fill:#3D89FB;}
	.st182{fill:#3D88FB;}
	.st183{fill:#3C87FB;}
	.st184{fill:#3C86FB;}
	.st185{fill:#3B85FB;}
	.st186{fill:#3B84FB;}
	.st187{fill:#3A83FB;}
	.st188{fill:#3A82FB;}
	.st189{fill:#3A81FB;}
	.st190{fill:#3980FB;}
	.st191{fill:#397FFB;}
	.st192{fill:#387EFB;}
	.st193{fill:#377CFB;}
	.st194{fill:#377BFB;}
	.st195{fill:#377AFB;}
	.st196{fill:#3679FB;}
	.st197{fill:#3678FB;}
	.st198{fill:#3577FB;}
	.st199{fill:#3576FB;}
	.st200{fill:#3475FB;}
	.st201{fill:#3474FB;}
	.st202{fill:#3473FB;}
	.st203{fill:#3372FB;}
	.st204{fill:#3371FB;}
	.st205{fill:#3270FB;}
	.st206{fill:#326FFB;}
	.st207{fill:#316EFB;}
	.st208{fill:#387CFB;}
	.st209{fill:#3B83FB;}
	.st210{fill:#3E8AFB;}
	.st211{fill:#3F8EFB;}
	.st212{fill:#4295FB;}
	.st213{fill:#4AA5FB;}
	.st214{fill:#4BA7FB;}
	.st215{fill:#4CA9FB;}
	.st216{fill:#4DACFB;}
	.st217{fill:#4EAEFB;}
	.st218{fill:#4FB0FB;}
	.st219{fill:#50B2FB;}
	.st220{fill:#51B5FB;}
	.st221{fill:#52B7FB;}
	.st222{fill:#53B9FB;}
	.st223{fill:#54BCFB;}
	.st224{fill:#55BEFB;}
	.st225{fill:#56C0FB;}
	.st226{fill:#57C2FB;}
	.st227{fill:#5ED2FB;}
	.st228{fill:#5BCBFB;}
	.st229{fill:#58C4FB;}
	.st230{fill:#55BDFB;}
	.st231{fill:#54BBFB;}
	.st232{fill:#52B6FB;}
	.st233{fill:#51B4FB;}
	.st234{fill:#48A0FB;}
	.st235{fill:#479EFB;}
	.st236{fill:#4599FB;}
	.st237{fill:#4497FB;}
	.st238{fill:#4292FB;}
	.st239{fill:#4190FB;}
	.st240{fill:#3F8BFB;}
	.st241{fill:#3E89FB;}
	.st242{fill:#3D87FB;}
	.st243{fill:#3C85FB;}
	.st244{fill:#3C84FB;}
	.st245{fill:#3B82FB;}
	.st246{fill:#3A80FB;}
	.st247{fill:#397EFB;}
	.st248{fill:#3575FB;}
	.st249{fill:none;stroke:#61DAFB;stroke-width:18;stroke-linecap:round;stroke-linejoin:round;stroke-miterlimit:10;}
	.st250{fill:#62DAFB;}
	.st251{fill:#63DAFB;}
	.st252{fill:#64DBFB;}
	.st253{fill:#65DBFB;}
	.st254{fill:#66DBFB;}
	.st255{fill:#67DBFB;}
	.st256{fill:#68DCFB;}
	.st257{fill:#69DCFB;}
	.st258{fill:#6ADCFB;}
	.st259{fill:#6BDCFB;}
	.st260{fill:#6CDDFB;}
	.st261{fill:#6DDDFB;}
	.st262{fill:#6EDDFB;}
	.st263{fill:#6FDDFB;}
	.st264{fill:#70DEFB;}
	.st265{fill:#71DEFB;}
	.st266{fill:#72DEFB;}
	.st267{fill:#73DEFB;}
	.st268{fill:#74DEFB;}
	.st269{fill:#75DFFC;}
	.st270{fill:#76DFFC;}
	.st271{fill:#77DFFC;}
	.st272{fill:#78DFFC;}
	.st273{fill:#79E0FC;}
	.st274{fill:#7AE0FC;}
	.st275{fill:#7BE0FC;}
	.st276{fill:#7CE0FC;}
	.st277{fill:#7DE1FC;}
	.st278{fill:#7EE1FC;}
	.st279{fill:#7FE1FC;}
	.st280{fill:#80E1FC;}
	.st281{fill:#81E1FC;}
	.st282{fill:#82E2FC;}
	.st283{fill:#83E2FC;}
	.st284{fill:#84E2FC;}
	.st285{fill:#85E2FC;}
	.st286{fill:#86E3FC;}
	.st287{fill:#87E3FC;}
	.st288{fill:#88E3FC;}
	.st289{fill:#89E3FC;}
	.st290{fill:#8AE4FC;}
	.st291{fill:#8BE4FC;}
	.st292{fill:#8CE4FC;}
	.st293{fill:#8DE4FC;}
	.st294{fill:#8EE5FC;}
	.st295{fill:#8FE5FC;}
	.st296{fill:#90E5FC;}
	.st297{fill:#91E5FC;}
	.st298{fill:#92E5FC;}
	.st299{fill:#93E6FC;}
	.st300{fill:#94E6FC;}
	.st301{fill:#95E6FC;}
	.st302{fill:#96E6FC;}
	.st303{fill:#97E7FC;}
	.st304{fill:#98E7FC;}
	.st305{fill:#99E7FC;}
	.st306{fill:#9AE7FC;}
	.st307{fill:#9BE8FC;}
	.st308{fill:#9CE8FC;}
	.st309{fill:#9DE8FD;}
	.st310{fill:#9EE8FD;}
	.st311{fill:#9FE9FD;}
	.st312{fill:#A0E9FD;}
	.st313{fill:#A1E9FD;}
	.st314{fill:#A2E9FD;}
	.st315{fill:#A3E9FD;}
	.st316{fill:#A4EAFD;}
	.st317{fill:#A5EAFD;}
	.st318{fill:#A6EAFD;}
	.st319{fill:#A7EAFD;}
	.st320{fill:#A8EBFD;}
	.st321{fill:#A9EBFD;}
	.st322{fill:#AAEBFD;}
	.st323{fill:#ABEBFD;}
	.st324{fill:#ACECFD;}
	.st325{fill:#ADECFD;}
	.st326{fill:#AEECFD;}
	.st327{fill:#AFECFD;}
	.st328{fill:#B0ECFD;}
	.st329{fill:#B1EDFD;}
	.st330{fill:#B2EDFD;}
	.st331{fill:#B3EDFD;}
	.st332{fill:#B4EDFD;}
	.st333{fill:#B5EEFD;}
	.st334{fill:#B6EEFD;}
	.st335{fill:#B7EEFD;}
	.st336{fill:#B8EEFD;}
	.st337{fill:#B9EFFD;}
	.st338{fill:#BAEFFD;}
	.st339{fill:#BBEFFD;}
	.st340{fill:#BCEFFD;}
	.st341{fill:#BDF0FD;}
	.st342{fill:#BEF0FD;}
	.st343{fill:#BFF0FD;}
	.st344{fill:#C0F0FD;}
	.st345{fill:#C1F0FD;}
	.st346{fill:#C2F1FD;}
	.st347{fill:#C3F1FD;}
	.st348{fill:#C4F1FE;}
	.st349{fill:#C5F1FE;}
	.st350{fill:#C6F2FE;}
	.st351{fill:#C7F2FE;}
	.st352{fill:#C8F2FE;}
	.st353{fill:#C9F2FE;}
	.st354{fill:#CAF3FE;}
	.st355{fill:#CBF3FE;}
	.st356{fill:#CCF3FE;}
	.st357{fill:#CDF3FE;}
	.st358{fill:#CEF4FE;}
	.st359{fill:#CFF4FE;}
	.st360{fill:#D0F4FE;}
	.st361{fill:#D1F4FE;}
	.st362{fill:#D2F4FE;}
	.st363{fill:#D3F5FE;}
	.st364{fill:#D4F5FE;}
	.st365{fill:#D5F5FE;}
	.st366{fill:#D6F5FE;}
	.st367{fill:#D7F6FE;}
	.st368{fill:#D8F6FE;}
	.st369{fill:#D9F6FE;}
	.st370{fill:#DAF6FE;}
	.st371{fill:#DBF7FE;}
	.st372{fill:#DCF7FE;}
	.st373{fill:#DDF7FE;}
	.st374{fill:#DEF7FE;}
	.st375{fill:#DFF8FE;}
	.st376{fill:#E0F8FE;}
	.st377{fill:#E1F8FE;}
	.st378{fill:#E2F8FE;}
	.st379{fill:#E3F8FE;}
	.st380{fill:#E4F9FE;}
	.st381{fill:#E5F9FE;}
	.st382{fill:#E6F9FE;}
	.st383{fill:#E7F9FE;}
	.st384{fill:#E8FAFE;}
	.st385{fill:#E9FAFE;}
	.st386{fill:#EAFAFE;}
	.st387{fill:#EBFAFE;}
	.st388{fill:#ECFBFF;}
	.st389{fill:#EDFBFF;}
	.st390{fill:#EEFBFF;}
	.st391{fill:#EFFBFF;}
	.st392{fill:#F0FBFF;}
	.st393{fill:#F1FCFF;}
	.st394{fill:#F2FCFF;}
	.st395{fill:#F3FCFF;}
	.st396{fill:#F4FCFF;}
	.st397{fill:#F5FDFF;}
	.st398{fill:#F6FDFF;}
	.st399{fill:#F7FDFF;}
	.st400{fill:#F8FDFF;}
	.st401{fill:#F9FEFF;}
	.st402{fill:#FAFEFF;}
	.st403{fill:#FBFEFF;}
	.st404{fill:#FCFEFF;}
	.st405{fill:#FDFFFF;}
	.st406{fill:#FEFFFF;}
	.st407{fill:#FDFEFF;}
	.st408{fill:#FAFDFF;}
	.st409{fill:#F9FDFF;}
	.st410{fill:#F7FCFF;}
	.st411{fill:#F6FCFF;}
	.st412{fill:#F5FCFF;}
	.st413{fill:#F4FBFF;}
	.st414{fill:#F3FBFF;}
	.st415{fill:#F2FBFF;}
	.st416{fill:#F1FBFF;}
	.st417{fill:#F0FAFF;}
	.st418{fill:#EFFAFF;}
	.st419{fill:#EEFAFF;}
	.st420{fill:#EDF9FF;}
	.st421{fill:#ECF9FF;}
	.st422{fill:#EBF9FF;}
	.st423{fill:#EAF8FE;}
	.st424{fill:#E9F8FE;}
	.st425{fill:#E8F8FE;}
	.st426{fill:#E7F7FE;}
	.st427{fill:#E6F7FE;}
	.st428{fill:#E5F7FE;}
	.st429{fill:#E4F6FE;}
	.st430{fill:#E3F6FE;}
	.st431{fill:#E2F6FE;}
	.st432{fill:#E1F5FE;}
	.st433{fill:#E0F5FE;}
	.st434{fill:#DFF5FE;}
	.st435{fill:#DEF4FE;}
	.st436{fill:#DDF4FE;}
	.st437{fill:#DCF4FE;}
	.st438{fill:#DBF3FE;}
	.st439{fill:#DAF3FE;}
	.st440{fill:#D9F3FE;}
	.st441{fill:#D8F2FE;}
	.st442{fill:#D7F2FE;}
	.st443{fill:#D6F2FE;}
	.st444{fill:#D5F2FE;}
	.st445{fill:#D4F1FE;}
	.st446{fill:#D3F1FE;}
	.st447{fill:#D2F1FE;}
	.st448{fill:#D1F0FE;}
	.st449{fill:#D0F0FE;}
	.st450{fill:#CFF0FE;}
	.st451{fill:#CEEFFE;}
	.st452{fill:#CDEFFE;}
	.st453{fill:#CCEFFE;}
	.st454{fill:#CBEEFE;}
	.st455{fill:#CAEEFE;}
	.st456{fill:#C9EEFE;}
	.st457{fill:#C8EDFE;}
	.st458{fill:#C7EDFE;}
	.st459{fill:#C6EDFE;}
	.st460{fill:#C5ECFE;}
	.st461{fill:#C4ECFE;}
	.st462{fill:#C3ECFE;}
	.st463{fill:#C2EBFE;}
	.st464{fill:#C1EBFD;}
	.st465{fill:#C0EBFD;}
	.st466{fill:#BFEAFD;}
	.st467{fill:#BEEAFD;}
	.st468{fill:#BDEAFD;}
	.st469{fill:#BCE9FD;}
	.st470{fill:#BBE9FD;}
	.st471{fill:#BAE9FD;}
	.st472{fill:#B9E9FD;}
	.st473{fill:#B8E8FD;}
	.st474{fill:#B7E8FD;}
	.st475{fill:#B6E8FD;}
	.st476{fill:#B5E7FD;}
	.st477{fill:#B4E7FD;}
	.st478{fill:#B3E7FD;}
	.st479{fill:#B2E6FD;}
	.st480{fill:#B1E6FD;}
	.st481{fill:#B0E6FD;}
	.st482{fill:#AFE5FD;}
	.st483{fill:#AEE5FD;}
	.st484{fill:#ADE5FD;}
	.st485{fill:#ACE4FD;}
	.st486{fill:#ABE4FD;}
	.st487{fill:#AAE4FD;}
	.st488{fill:#A9E3FD;}
	.st489{fill:#A8E3FD;}
	.st490{fill:#A7E3FD;}
	.st491{fill:#A6E2FD;}
	.st492{fill:#A5E2FD;}
	.st493{fill:#A4E2FD;}
	.st494{fill:#A3E1FD;}
	.st495{fill:#A2E1FD;}
	.st496{fill:#A1E1FD;}
	.st497{fill:#A0E0FD;}
	.st498{fill:#9FE0FD;}
	.st499{fill:#9EE0FD;}
	.st500{fill:#9DE0FD;}
	.st501{fill:#9CDFFD;}
	.st502{fill:#9BDFFD;}
	.st503{fill:#9ADFFD;}
	.st504{fill:#99DEFD;}
	.st505{fill:#98DEFD;}
	.st506{fill:#97DEFC;}
	.st507{fill:#96DDFC;}
	.st508{fill:#95DDFC;}
	.st509{fill:#94DDFC;}
	.st510{fill:#93DCFC;}
	.st511{fill:#92DCFC;}
	.st512{fill:#91DCFC;}
	.st513{fill:#90DBFC;}
	.st514{fill:#8FDBFC;}
	.st515{fill:#8EDBFC;}
	.st516{fill:#8DDAFC;}
	.st517{fill:#8CDAFC;}
	.st518{fill:#8BDAFC;}
	.st519{fill:#8AD9FC;}
	.st520{fill:#89D9FC;}
	.st521{fill:#88D9FC;}
	.st522{fill:#87D8FC;}
	.st523{fill:#86D8FC;}
	.st524{fill:#85D8FC;}
	.st525{fill:#84D7FC;}
	.st526{fill:#83D7FC;}
	.st527{fill:#82D7FC;}
	.st528{fill:#81D7FC;}
	.st529{fill:#80D6FC;}
	.st530{fill:#7FD6FC;}
	.st531{fill:#7ED6FC;}
	.st532{fill:#7DD5FC;}
	.st533{fill:#7CD5FC;}
	.st534{fill:#7BD5FC;}
	.st535{fill:#7AD4FC;}
	.st536{fill:#79D4FC;}
	.st537{fill:#78D4FC;}
	.st538{fill:#77D3FC;}
	.st539{fill:#76D3FC;}
	.st540{fill:#75D3FC;}
	.st541{fill:#74D2FC;}
	.st542{fill:#73D2FC;}
	.st543{fill:#72D2FC;}
	.st544{fill:#71D1FC;}
	.st545{fill:#70D1FC;}
	.st546{fill:#6FD1FC;}
	.st547{fill:#6ED0FB;}
	.st548{fill:#6DD0FB;}
	.st549{fill:#6CD0FB;}
	.st550{fill:#6BCFFB;}
	.st551{fill:#6ACFFB;}
	.st552{fill:#69CFFB;}
	.st553{fill:#68CEFB;}
	.st554{fill:#67CEFB;}
	.st555{fill:#66CEFB;}
	.st556{fill:#65CEFB;}
	.st557{fill:#64CDFB;}
	.st558{fill:#63CDFB;}
	.st559{fill:#62CDFB;}
	.st560{fill:#61CCFB;}
	.st561{fill:#60CCFB;}
	.st562{fill:#5FCCFB;}
	.st563{fill:#5ECBFB;}
	.st564{fill:#5DCBFB;}
	.st565{fill:#5CCBFB;}
	.st566{fill:#5BCAFB;}
	.st567{fill:url(#SVGID_82_);}
	.st568{fill:url(#SVGID_83_);}
	.st569{fill:none;}
	.st570{fill:#6CDCFB;}
	.st571{fill:#70DDFB;}
	.st572{fill:#A3EAFD;}
	.st573{fill:#BDEFFD;}
	.st574{fill:#F0FCFF;}
	.st575{fill:#F4FDFF;}
	.st576{fill:#B0EDFD;}
	.st577{fill:#61DAFB;stroke:#61DAFB;stroke-width:2;stroke-miterlimit:10;}
	.st578{fill:none;stroke:#316DFB;stroke-miterlimit:10;}
</style>
<g>
	<g>
		<g>
			<path class="st9" d="M813.7,113v34.6h-32.8V356h-35.1V147.6H611.8V113H813.7z"/>
			<path class="st9" d="M909.8,356h-35.1V34.3h35.1V117c6.9-5.2,16-7.8,27.1-7.8c25.7,0.1,38.5,17.1,38.5,51.2V356h-35V160.3
				c0-11-5.1-16.5-15.4-16.5c-10.1,0-15.2,5.4-15.2,16.3V356z"/>
			<path class="st9" d="M1157.5,308.8c0,34-16.8,51.1-50.4,51.1c-33.5,0-50.3-17-50.3-51.1V113h35.1v195.8c0,11,5.1,16.5,15.2,16.5
				c10.2,0,15.4-5.5,15.4-16.5V113h35V308.8z"/>
			<path class="st9" d="M1274,356h-35V160.2c0-34,16.8-51,50.3-51c33.6,0,50.4,17,50.4,51V356h-35.1V160.2
				c0-10.9-5.1-16.4-15.2-16.5h-0.3c-10.1,0-15.1,5.5-15.1,16.5V356z"/>
			<path class="st9" d="M1486.7,34.3h35v274.6c0,34-16.8,51.1-50.4,51.1c-33.5,0-50.3-17-50.3-51.1V160.3c0-34,12.8-51.1,38.5-51.2
				c11.1,0,20.2,2.6,27.1,7.8V34.3z M1486.7,160.2c-0.1-10.9-5.2-16.3-15.2-16.3c-10.2,0-15.4,5.5-15.4,16.5v148.5
				c0,11,5.1,16.5,15.2,16.5c10.2,0,15.4-5.5,15.4-16.5V160.2z"/>
			<path class="st9" d="M1638,251.9v57c0,11,5.1,16.5,15.2,16.5c10.2,0,15.4-5.5,15.4-16.5v-32.7h35.1v32.7
				c0,34-16.8,51.1-50.4,51.1c-33.5,0-50.3-17-50.3-51.1V160.2c0-34,16.8-51,50.3-51c33.6,0,50.4,17,50.4,51v91.6H1638z M1638,217.2
				h30.6v-57c0-10.9-5.1-16.4-15.2-16.5h-0.3c-10.1,0-15.1,5.5-15.1,16.5V217.2z"/>
		</g>
	</g>
	<path class="st9" d="M1870.2,109.2v34.5H1835c-10.1,0-15.1,5.5-15.1,16.5V356h-35.1V160.2c0-34,16.7-51,50.3-51H1870.2z"/>
</g>
<g>
	<circle class="st4" cx="53.4" cy="81.5" r="19.1"/>
	<circle class="st250" cx="53.9" cy="82.1" r="19.2"/>
	<circle class="st251" cx="54.5" cy="82.8" r="19.4"/>
	<circle class="st252" cx="55.1" cy="83.5" r="19.5"/>
	<circle class="st253" cx="55.7" cy="84.2" r="19.6"/>
	<circle class="st254" cx="56.3" cy="84.8" r="19.7"/>
	<circle class="st255" cx="56.8" cy="85.5" r="19.8"/>
	<circle class="st256" cx="57.4" cy="86.2" r="20"/>
	<circle class="st257" cx="58" cy="86.8" r="20.1"/>
	<circle class="st258" cx="58.6" cy="87.5" r="20.2"/>
	<circle class="st259" cx="59.2" cy="88.2" r="20.3"/>
	<circle class="st260" cx="59.7" cy="88.9" r="20.4"/>
	<circle class="st261" cx="60.3" cy="89.5" r="20.6"/>
	<circle class="st262" cx="60.9" cy="90.2" r="20.7"/>
	<circle class="st263" cx="61.5" cy="90.9" r="20.8"/>
	<circle class="st264" cx="62" cy="91.6" r="20.9"/>
	<circle class="st265" cx="62.6" cy="92.2" r="21.1"/>
	<circle class="st266" cx="63.2" cy="92.9" r="21.2"/>
	<circle class="st267" cx="63.8" cy="93.6" r="21.3"/>
	<circle class="st268" cx="64.4" cy="94.2" r="21.4"/>
	<circle class="st269" cx="64.9" cy="94.9" r="21.5"/>
	<circle class="st270" cx="65.5" cy="95.6" r="21.7"/>
	<circle class="st271" cx="66.1" cy="96.3" r="21.8"/>
	<circle class="st272" cx="66.7" cy="96.9" r="21.9"/>
	<circle class="st273" cx="67.3" cy="97.6" r="22"/>
	<circle class="st274" cx="67.8" cy="98.3" r="22.1"/>
	<circle class="st275" cx="68.4" cy="99" r="22.3"/>
	<circle class="st276" cx="69" cy="99.6" r="22.4"/>
	<circle class="st277" cx="69.6" cy="100.3" r="22.5"/>
	<circle class="st278" cx="70.2" cy="101" r="22.6"/>
	<circle class="st279" cx="70.7" cy="101.6" r="22.7"/>
	<circle class="st280" cx="71.3" cy="102.3" r="22.9"/>
	<circle class="st281" cx="71.9" cy="103" r="23"/>
	<circle class="st282" cx="72.5" cy="103.7" r="23.1"/>
	<circle class="st283" cx="73" cy="104.3" r="23.2"/>
	<circle class="st284" cx="73.6" cy="105" r="23.4"/>
	<circle class="st285" cx="74.2" cy="105.7" r="23.5"/>
	<circle class="st286" cx="74.8" cy="106.4" r="23.6"/>
	<circle class="st287" cx="75.4" cy="107" r="23.7"/>
	<circle class="st288" cx="75.9" cy="107.7" r="23.8"/>
	<circle class="st289" cx="76.5" cy="108.4" r="24"/>
	<circle class="st290" cx="77.1" cy="109.1" r="24.1"/>
	<circle class="st291" cx="77.7" cy="109.7" r="24.2"/>
	<circle class="st292" cx="78.3" cy="110.4" r="24.3"/>
	<circle class="st293" cx="78.8" cy="111.1" r="24.4"/>
	<circle class="st294" cx="79.4" cy="111.7" r="24.6"/>
	<circle class="st295" cx="80" cy="112.4" r="24.7"/>
	<circle class="st296" cx="80.6" cy="113.1" r="24.8"/>
	<circle class="st297" cx="81.2" cy="113.8" r="24.9"/>
	<circle class="st298" cx="81.7" cy="114.4" r="25"/>
	<circle class="st299" cx="82.3" cy="115.1" r="25.2"/>
	<circle class="st300" cx="82.9" cy="115.8" r="25.3"/>
	<circle class="st301" cx="83.5" cy="116.5" r="25.4"/>
	<circle class="st302" cx="84" cy="117.1" r="25.5"/>
	<circle class="st303" cx="84.6" cy="117.8" r="25.7"/>
	<circle class="st304" cx="85.2" cy="118.5" r="25.8"/>
	<circle class="st305" cx="85.8" cy="119.1" r="25.9"/>
	<circle class="st306" cx="86.4" cy="119.8" r="26"/>
	<circle class="st307" cx="86.9" cy="120.5" r="26.1"/>
	<circle class="st308" cx="87.5" cy="121.2" r="26.3"/>
	<circle class="st309" cx="88.1" cy="121.8" r="26.4"/>
	<circle class="st310" cx="88.7" cy="122.5" r="26.5"/>
	<circle class="st311" cx="89.3" cy="123.2" r="26.6"/>
	<circle class="st312" cx="89.8" cy="123.9" r="26.7"/>
	<circle class="st313" cx="90.4" cy="124.5" r="26.9"/>
	<circle class="st314" cx="91" cy="125.2" r="27"/>
	<circle class="st315" cx="91.6" cy="125.9" r="27.1"/>
	<circle class="st316" cx="92.2" cy="126.6" r="27.2"/>
	<circle class="st317" cx="92.7" cy="127.2" r="27.3"/>
	<circle class="st318" cx="93.3" cy="127.9" r="27.5"/>
	<circle class="st319" cx="93.9" cy="128.6" r="27.6"/>
	<circle class="st320" cx="94.5" cy="129.2" r="27.7"/>
	<circle class="st321" cx="95" cy="129.9" r="27.8"/>
	<circle class="st322" cx="95.6" cy="130.6" r="28"/>
	<circle class="st323" cx="96.2" cy="131.3" r="28.1"/>
	<circle class="st324" cx="96.8" cy="131.9" r="28.2"/>
	<circle class="st325" cx="97.4" cy="132.6" r="28.3"/>
	<circle class="st326" cx="97.9" cy="133.3" r="28.4"/>
	<circle class="st327" cx="98.5" cy="134" r="28.6"/>
	<circle class="st328" cx="99.1" cy="134.6" r="28.7"/>
	<circle class="st329" cx="99.7" cy="135.3" r="28.8"/>
	<circle class="st330" cx="100.3" cy="136" r="28.9"/>
	<circle class="st331" cx="100.8" cy="136.6" r="29"/>
	<circle class="st332" cx="101.4" cy="137.3" r="29.2"/>
	<circle class="st333" cx="102" cy="138" r="29.3"/>
	<circle class="st334" cx="102.6" cy="138.7" r="29.4"/>
	<circle class="st335" cx="103.2" cy="139.3" r="29.5"/>
	<circle class="st336" cx="103.7" cy="140" r="29.6"/>
	<circle class="st337" cx="104.3" cy="140.7" r="29.8"/>
	<circle class="st338" cx="104.9" cy="141.4" r="29.9"/>
	<circle class="st339" cx="105.5" cy="142" r="30"/>
	<circle class="st340" cx="106" cy="142.7" r="30.1"/>
	<circle class="st341" cx="106.6" cy="143.4" r="30.2"/>
	<circle class="st342" cx="107.2" cy="144" r="30.4"/>
	<circle class="st343" cx="107.8" cy="144.7" r="30.5"/>
	<circle class="st344" cx="108.4" cy="145.4" r="30.6"/>
	<circle class="st345" cx="108.9" cy="146.1" r="30.7"/>
	<circle class="st346" cx="109.5" cy="146.7" r="30.9"/>
	<circle class="st347" cx="110.1" cy="147.4" r="31"/>
	<circle class="st348" cx="110.7" cy="148.1" r="31.1"/>
	<circle class="st349" cx="111.3" cy="148.8" r="31.2"/>
	<circle class="st350" cx="111.8" cy="149.4" r="31.3"/>
	<circle class="st351" cx="112.4" cy="150.1" r="31.5"/>
	<circle class="st352" cx="113" cy="150.8" r="31.6"/>
	<circle class="st353" cx="113.6" cy="151.5" r="31.7"/>
	<circle class="st354" cx="114.2" cy="152.1" r="31.8"/>
	<circle class="st355" cx="114.7" cy="152.8" r="31.9"/>
	<circle class="st356" cx="115.3" cy="153.5" r="32.1"/>
	<circle class="st357" cx="115.9" cy="154.1" r="32.2"/>
	<circle class="st358" cx="116.5" cy="154.8" r="32.3"/>
	<circle class="st359" cx="117" cy="155.5" r="32.4"/>
	<circle class="st360" cx="117.6" cy="156.2" r="32.5"/>
	<circle class="st361" cx="118.2" cy="156.8" r="32.7"/>
	<circle class="st362" cx="118.8" cy="157.5" r="32.8"/>
	<circle class="st363" cx="119.4" cy="158.2" r="32.9"/>
	<circle class="st364" cx="119.9" cy="158.9" r="33"/>
	<circle class="st365" cx="120.5" cy="159.5" r="33.2"/>
	<circle class="st366" cx="121.1" cy="160.2" r="33.3"/>
	<circle class="st367" cx="121.7" cy="160.9" r="33.4"/>
	<circle class="st368" cx="122.3" cy="161.5" r="33.5"/>
	<circle class="st369" cx="122.8" cy="162.2" r="33.6"/>
	<circle class="st370" cx="123.4" cy="162.9" r="33.8"/>
	<circle class="st371" cx="124" cy="163.6" r="33.9"/>
	<circle class="st372" cx="124.6" cy="164.2" r="34"/>
	<circle class="st373" cx="125.2" cy="164.9" r="34.1"/>
	<circle class="st374" cx="125.7" cy="165.6" r="34.2"/>
	<circle class="st375" cx="126.3" cy="166.3" r="34.4"/>
	<circle class="st376" cx="126.9" cy="166.9" r="34.5"/>
	<circle class="st377" cx="127.5" cy="167.6" r="34.6"/>
	<circle class="st378" cx="128" cy="168.3" r="34.7"/>
	<circle class="st379" cx="128.6" cy="169" r="34.8"/>
	<circle class="st380" cx="129.2" cy="169.6" r="35"/>
	<circle class="st381" cx="129.8" cy="170.3" r="35.1"/>
	<circle class="st382" cx="130.4" cy="171" r="35.2"/>
	<circle class="st383" cx="130.9" cy="171.6" r="35.3"/>
	<circle class="st384" cx="131.5" cy="172.3" r="35.5"/>
	<circle class="st385" cx="132.1" cy="173" r="35.6"/>
	<circle class="st386" cx="132.7" cy="173.7" r="35.7"/>
	<circle class="st387" cx="133.3" cy="174.3" r="35.8"/>
	<circle class="st388" cx="133.8" cy="175" r="35.9"/>
	<circle class="st389" cx="134.4" cy="175.7" r="36.1"/>
	<circle class="st390" cx="135" cy="176.4" r="36.2"/>
	<circle class="st391" cx="135.6" cy="177" r="36.3"/>
	<circle class="st392" cx="136.2" cy="177.7" r="36.4"/>
	<circle class="st393" cx="136.7" cy="178.4" r="36.5"/>
	<circle class="st394" cx="137.3" cy="179" r="36.7"/>
	<circle class="st395" cx="137.9" cy="179.7" r="36.8"/>
	<circle class="st396" cx="138.5" cy="180.4" r="36.9"/>
	<circle class="st397" cx="139" cy="181.1" r="37"/>
	<circle class="st398" cx="139.6" cy="181.7" r="37.1"/>
	<circle class="st399" cx="140.2" cy="182.4" r="37.3"/>
	<circle class="st400" cx="140.8" cy="183.1" r="37.4"/>
	<circle class="st401" cx="141.4" cy="183.8" r="37.5"/>
	<circle class="st402" cx="141.9" cy="184.4" r="37.6"/>
	<circle class="st403" cx="142.5" cy="185.1" r="37.8"/>
	<circle class="st404" cx="143.1" cy="185.8" r="37.9"/>
	<circle class="st405" cx="143.7" cy="186.4" r="38"/>
	<circle class="st406" cx="144.3" cy="187.1" r="38.1"/>
	<circle class="st9" cx="144.8" cy="187.8" r="38.2"/>
	<circle class="st406" cx="146" cy="187.8" r="38.5"/>
	<circle class="st407" cx="147.1" cy="187.9" r="38.7"/>
	<circle class="st404" cx="148.3" cy="187.9" r="38.9"/>
	<circle class="st403" cx="149.4" cy="188" r="39.2"/>
	<circle class="st408" cx="150.6" cy="188" r="39.4"/>
	<circle class="st409" cx="151.7" cy="188.1" r="39.6"/>
	<circle class="st400" cx="152.9" cy="188.2" r="39.9"/>
	<circle class="st410" cx="154" cy="188.2" r="40.1"/>
	<circle class="st411" cx="155.1" cy="188.3" r="40.3"/>
	<circle class="st412" cx="156.3" cy="188.3" r="40.6"/>
	<circle class="st413" cx="157.4" cy="188.4" r="40.8"/>
	<circle class="st414" cx="158.6" cy="188.4" r="41"/>
	<circle class="st415" cx="159.7" cy="188.5" r="41.2"/>
	<circle class="st416" cx="160.9" cy="188.5" r="41.5"/>
	<circle class="st417" cx="162" cy="188.6" r="41.7"/>
	<circle class="st418" cx="163.2" cy="188.6" r="41.9"/>
	<circle class="st419" cx="164.3" cy="188.7" r="42.2"/>
	<circle class="st420" cx="165.5" cy="188.7" r="42.4"/>
	<circle class="st421" cx="166.6" cy="188.8" r="42.6"/>
	<circle class="st422" cx="167.8" cy="188.8" r="42.9"/>
	<circle class="st423" cx="168.9" cy="188.9" r="43.1"/>
	<circle class="st424" cx="170" cy="188.9" r="43.3"/>
	<circle class="st425" cx="171.2" cy="189" r="43.6"/>
	<circle class="st426" cx="172.3" cy="189" r="43.8"/>
	<circle class="st427" cx="173.5" cy="189.1" r="44"/>
	<circle class="st428" cx="174.6" cy="189.1" r="44.3"/>
	<circle class="st429" cx="175.8" cy="189.2" r="44.5"/>
	<circle class="st430" cx="176.9" cy="189.2" r="44.7"/>
	<circle class="st431" cx="178.1" cy="189.3" r="45"/>
	<circle class="st432" cx="179.2" cy="189.3" r="45.2"/>
	<circle class="st433" cx="180.4" cy="189.4" r="45.4"/>
	<circle class="st434" cx="181.5" cy="189.4" r="45.7"/>
	<circle class="st435" cx="182.7" cy="189.5" r="45.9"/>
	<circle class="st436" cx="183.8" cy="189.5" r="46.1"/>
	<circle class="st437" cx="184.9" cy="189.6" r="46.3"/>
	<circle class="st438" cx="186.1" cy="189.6" r="46.6"/>
	<circle class="st439" cx="187.2" cy="189.7" r="46.8"/>
	<circle class="st440" cx="188.4" cy="189.7" r="47"/>
	<circle class="st441" cx="189.5" cy="189.8" r="47.3"/>
	<circle class="st442" cx="190.7" cy="189.8" r="47.5"/>
	<circle class="st443" cx="191.8" cy="189.9" r="47.7"/>
	<circle class="st444" cx="193" cy="189.9" r="48"/>
	<circle class="st445" cx="194.1" cy="190" r="48.2"/>
	<circle class="st446" cx="195.3" cy="190" r="48.4"/>
	<circle class="st447" cx="196.4" cy="190.1" r="48.7"/>
	<circle class="st448" cx="197.6" cy="190.1" r="48.9"/>
	<circle class="st449" cx="198.7" cy="190.2" r="49.1"/>
	<circle class="st450" cx="199.8" cy="190.2" r="49.4"/>
	<circle class="st451" cx="201" cy="190.3" r="49.6"/>
	<circle class="st452" cx="202.1" cy="190.3" r="49.8"/>
	<circle class="st453" cx="203.3" cy="190.4" r="50.1"/>
	<circle class="st454" cx="204.4" cy="190.4" r="50.3"/>
	<circle class="st455" cx="205.6" cy="190.5" r="50.5"/>
	<circle class="st456" cx="206.7" cy="190.5" r="50.7"/>
	<circle class="st457" cx="207.9" cy="190.6" r="51"/>
	<circle class="st458" cx="209" cy="190.6" r="51.2"/>
	<circle class="st459" cx="210.2" cy="190.7" r="51.4"/>
	<circle class="st460" cx="211.3" cy="190.7" r="51.7"/>
	<circle class="st461" cx="212.5" cy="190.8" r="51.9"/>
	<circle class="st462" cx="213.6" cy="190.8" r="52.1"/>
	<circle class="st463" cx="214.7" cy="190.9" r="52.4"/>
	<circle class="st464" cx="215.9" cy="190.9" r="52.6"/>
	<circle class="st465" cx="217" cy="191" r="52.8"/>
	<circle class="st466" cx="218.2" cy="191" r="53.1"/>
	<circle class="st467" cx="219.3" cy="191.1" r="53.3"/>
	<circle class="st468" cx="220.5" cy="191.1" r="53.5"/>
	<circle class="st469" cx="221.6" cy="191.2" r="53.8"/>
	<circle class="st470" cx="222.8" cy="191.2" r="54"/>
	<circle class="st471" cx="223.9" cy="191.3" r="54.2"/>
	<circle class="st472" cx="225.1" cy="191.3" r="54.5"/>
	<circle class="st473" cx="226.2" cy="191.4" r="54.7"/>
	<circle class="st474" cx="227.4" cy="191.4" r="54.9"/>
	<circle class="st475" cx="228.5" cy="191.5" r="55.2"/>
	<circle class="st476" cx="229.6" cy="191.5" r="55.4"/>
	<circle class="st477" cx="230.8" cy="191.6" r="55.6"/>
	<circle class="st478" cx="231.9" cy="191.7" r="55.8"/>
	<circle class="st479" cx="233.1" cy="191.7" r="56.1"/>
	<circle class="st480" cx="234.2" cy="191.8" r="56.3"/>
	<circle class="st481" cx="235.4" cy="191.8" r="56.5"/>
	<circle class="st482" cx="236.5" cy="191.9" r="56.8"/>
	<circle class="st483" cx="237.7" cy="191.9" r="57"/>
	<circle class="st484" cx="238.8" cy="192" r="57.2"/>
	<circle class="st485" cx="240" cy="192" r="57.5"/>
	<circle class="st486" cx="241.1" cy="192.1" r="57.7"/>
	<circle class="st487" cx="242.3" cy="192.1" r="57.9"/>
	<circle class="st488" cx="243.4" cy="192.2" r="58.2"/>
	<circle class="st489" cx="244.5" cy="192.2" r="58.4"/>
	<circle class="st490" cx="245.7" cy="192.3" r="58.6"/>
	<circle class="st491" cx="246.8" cy="192.3" r="58.9"/>
	<circle class="st492" cx="248" cy="192.4" r="59.1"/>
	<circle class="st493" cx="249.1" cy="192.4" r="59.3"/>
	<circle class="st494" cx="250.3" cy="192.5" r="59.6"/>
	<circle class="st495" cx="251.4" cy="192.5" r="59.8"/>
	<circle class="st496" cx="252.6" cy="192.6" r="60"/>
	<circle class="st497" cx="253.7" cy="192.6" r="60.2"/>
	<circle class="st498" cx="254.9" cy="192.7" r="60.5"/>
	<circle class="st499" cx="256" cy="192.7" r="60.7"/>
	<circle class="st500" cx="257.2" cy="192.8" r="60.9"/>
	<circle class="st501" cx="258.3" cy="192.8" r="61.2"/>
	<circle class="st502" cx="259.4" cy="192.9" r="61.4"/>
	<circle class="st503" cx="260.6" cy="192.9" r="61.6"/>
	<circle class="st504" cx="261.7" cy="193" r="61.9"/>
	<circle class="st505" cx="262.9" cy="193" r="62.1"/>
	<circle class="st506" cx="264" cy="193.1" r="62.3"/>
	<circle class="st507" cx="265.2" cy="193.1" r="62.6"/>
	<circle class="st508" cx="266.3" cy="193.2" r="62.8"/>
	<circle class="st509" cx="267.5" cy="193.2" r="63"/>
	<circle class="st510" cx="268.6" cy="193.3" r="63.3"/>
	<circle class="st511" cx="269.8" cy="193.3" r="63.5"/>
	<circle class="st512" cx="270.9" cy="193.4" r="63.7"/>
	<circle class="st513" cx="272.1" cy="193.4" r="64"/>
	<circle class="st514" cx="273.2" cy="193.5" r="64.2"/>
	<circle class="st515" cx="274.3" cy="193.5" r="64.4"/>
	<circle class="st516" cx="275.5" cy="193.6" r="64.7"/>
	<circle class="st517" cx="276.6" cy="193.6" r="64.9"/>
	<circle class="st518" cx="277.8" cy="193.7" r="65.1"/>
	<circle class="st519" cx="278.9" cy="193.7" r="65.3"/>
	<circle class="st520" cx="280.1" cy="193.8" r="65.6"/>
	<circle class="st521" cx="281.2" cy="193.8" r="65.8"/>
	<circle class="st522" cx="282.4" cy="193.9" r="66"/>
	<circle class="st523" cx="283.5" cy="193.9" r="66.3"/>
	<circle class="st524" cx="284.7" cy="194" r="66.5"/>
	<circle class="st525" cx="285.8" cy="194" r="66.7"/>
	<circle class="st526" cx="287" cy="194.1" r="67"/>
	<circle class="st527" cx="288.1" cy="194.1" r="67.2"/>
	<circle class="st528" cx="289.2" cy="194.2" r="67.4"/>
	<circle class="st529" cx="290.4" cy="194.2" r="67.7"/>
	<circle class="st530" cx="291.5" cy="194.3" r="67.9"/>
	<circle class="st531" cx="292.7" cy="194.3" r="68.1"/>
	<circle class="st532" cx="293.8" cy="194.4" r="68.4"/>
	<circle class="st533" cx="295" cy="194.4" r="68.6"/>
	<circle class="st534" cx="296.1" cy="194.5" r="68.8"/>
	<circle class="st535" cx="297.3" cy="194.5" r="69.1"/>
	<circle class="st536" cx="298.4" cy="194.6" r="69.3"/>
	<circle class="st537" cx="299.6" cy="194.6" r="69.5"/>
	<circle class="st538" cx="300.7" cy="194.7" r="69.7"/>
	<circle class="st539" cx="301.9" cy="194.7" r="70"/>
	<circle class="st540" cx="303" cy="194.8" r="70.2"/>
	<circle class="st541" cx="304.1" cy="194.8" r="70.4"/>
	<circle class="st542" cx="305.3" cy="194.9" r="70.7"/>
	<circle class="st543" cx="306.4" cy="194.9" r="70.9"/>
	<circle class="st544" cx="307.6" cy="195" r="71.1"/>
	<circle class="st545" cx="308.7" cy="195" r="71.4"/>
	<circle class="st546" cx="309.9" cy="195.1" r="71.6"/>
	<circle class="st547" cx="311" cy="195.2" r="71.8"/>
	<circle class="st548" cx="312.2" cy="195.2" r="72.1"/>
	<circle class="st549" cx="313.3" cy="195.3" r="72.3"/>
	<circle class="st550" cx="314.5" cy="195.3" r="72.5"/>
	<circle class="st551" cx="315.6" cy="195.4" r="72.8"/>
	<circle class="st552" cx="316.8" cy="195.4" r="73"/>
	<circle class="st553" cx="317.9" cy="195.5" r="73.2"/>
	<circle class="st554" cx="319" cy="195.5" r="73.5"/>
	<circle class="st555" cx="320.2" cy="195.6" r="73.7"/>
	<circle class="st556" cx="321.3" cy="195.6" r="73.9"/>
	<circle class="st557" cx="322.5" cy="195.7" r="74.2"/>
	<circle class="st558" cx="323.6" cy="195.7" r="74.4"/>
	<circle class="st559" cx="324.8" cy="195.8" r="74.6"/>
	<circle class="st560" cx="325.9" cy="195.8" r="74.8"/>
	<circle class="st561" cx="327.1" cy="195.9" r="75.1"/>
	<circle class="st562" cx="328.2" cy="195.9" r="75.3"/>
	<circle class="st563" cx="329.4" cy="196" r="75.5"/>
	<circle class="st564" cx="330.5" cy="196" r="75.8"/>
	<circle class="st565" cx="331.7" cy="196.1" r="76"/>
	<circle class="st566" cx="332.8" cy="196.1" r="76.2"/>
	<circle class="st0" cx="333.9" cy="196.2" r="76.5"/>
	<circle class="st566" cx="334.7" cy="197" r="76.1"/>
	<circle class="st565" cx="335.5" cy="197.9" r="75.8"/>
	<circle class="st564" cx="336.3" cy="198.8" r="75.4"/>
	<circle class="st563" cx="337" cy="199.7" r="75.1"/>
	<circle class="st562" cx="337.8" cy="200.5" r="74.7"/>
	<circle class="st561" cx="338.6" cy="201.4" r="74.4"/>
	<circle class="st560" cx="339.4" cy="202.3" r="74"/>
	<circle class="st559" cx="340.1" cy="203.2" r="73.7"/>
	<circle class="st558" cx="340.9" cy="204.1" r="73.3"/>
	<circle class="st557" cx="341.7" cy="204.9" r="73"/>
	<circle class="st556" cx="342.5" cy="205.8" r="72.6"/>
	<circle class="st555" cx="343.2" cy="206.7" r="72.3"/>
	<circle class="st554" cx="344" cy="207.6" r="72"/>
	<circle class="st553" cx="344.8" cy="208.4" r="71.6"/>
	<circle class="st552" cx="345.6" cy="209.3" r="71.3"/>
	<circle class="st551" cx="346.3" cy="210.2" r="70.9"/>
	<circle class="st550" cx="347.1" cy="211.1" r="70.6"/>
	<circle class="st549" cx="347.9" cy="212" r="70.2"/>
	<circle class="st548" cx="348.6" cy="212.8" r="69.9"/>
	<circle class="st547" cx="349.4" cy="213.7" r="69.5"/>
	<circle class="st546" cx="350.2" cy="214.6" r="69.2"/>
	<circle class="st545" cx="351" cy="215.5" r="68.8"/>
	<circle class="st544" cx="351.7" cy="216.3" r="68.5"/>
	<circle class="st543" cx="352.5" cy="217.2" r="68.1"/>
	<circle class="st542" cx="353.3" cy="218.1" r="67.8"/>
	<circle class="st541" cx="354.1" cy="219" r="67.4"/>
	<circle class="st540" cx="354.8" cy="219.8" r="67.1"/>
	<circle class="st539" cx="355.6" cy="220.7" r="66.7"/>
	<circle class="st538" cx="356.4" cy="221.6" r="66.4"/>
	<circle class="st537" cx="357.2" cy="222.5" r="66"/>
	<circle class="st536" cx="357.9" cy="223.4" r="65.7"/>
	<circle class="st535" cx="358.7" cy="224.2" r="65.3"/>
	<circle class="st534" cx="359.5" cy="225.1" r="65"/>
	<circle class="st533" cx="360.3" cy="226" r="64.7"/>
	<circle class="st532" cx="361" cy="226.9" r="64.3"/>
	<circle class="st531" cx="361.8" cy="227.7" r="64"/>
	<circle class="st530" cx="362.6" cy="228.6" r="63.6"/>
	<circle class="st529" cx="363.3" cy="229.5" r="63.3"/>
	<circle class="st528" cx="364.1" cy="230.4" r="62.9"/>
	<circle class="st527" cx="364.9" cy="231.2" r="62.6"/>
	<circle class="st526" cx="365.7" cy="232.1" r="62.2"/>
	<circle class="st525" cx="366.4" cy="233" r="61.9"/>
	<circle class="st524" cx="367.2" cy="233.9" r="61.5"/>
	<circle class="st523" cx="368" cy="234.8" r="61.2"/>
	<circle class="st522" cx="368.8" cy="235.6" r="60.8"/>
	<circle class="st521" cx="369.5" cy="236.5" r="60.5"/>
	<circle class="st520" cx="370.3" cy="237.4" r="60.1"/>
	<circle class="st519" cx="371.1" cy="238.3" r="59.8"/>
	<circle class="st518" cx="371.9" cy="239.1" r="59.4"/>
	<circle class="st517" cx="372.6" cy="240" r="59.1"/>
	<circle class="st516" cx="373.4" cy="240.9" r="58.7"/>
	<circle class="st515" cx="374.2" cy="241.8" r="58.4"/>
	<circle class="st514" cx="375" cy="242.6" r="58"/>
	<circle class="st513" cx="375.7" cy="243.5" r="57.7"/>
	<circle class="st512" cx="376.5" cy="244.4" r="57.4"/>
	<circle class="st511" cx="377.3" cy="245.3" r="57"/>
	<circle class="st510" cx="378" cy="246.2" r="56.7"/>
	<circle class="st509" cx="378.8" cy="247" r="56.3"/>
	<circle class="st508" cx="379.6" cy="247.9" r="56"/>
	<circle class="st507" cx="380.4" cy="248.8" r="55.6"/>
	<circle class="st506" cx="381.1" cy="249.7" r="55.3"/>
	<circle class="st505" cx="381.9" cy="250.5" r="54.9"/>
	<circle class="st504" cx="382.7" cy="251.4" r="54.6"/>
	<circle class="st503" cx="383.5" cy="252.3" r="54.2"/>
	<circle class="st502" cx="384.2" cy="253.2" r="53.9"/>
	<circle class="st501" cx="385" cy="254" r="53.5"/>
	<circle class="st500" cx="385.8" cy="254.9" r="53.2"/>
	<circle class="st499" cx="386.6" cy="255.8" r="52.8"/>
	<circle class="st498" cx="387.3" cy="256.7" r="52.5"/>
	<circle class="st497" cx="388.1" cy="257.6" r="52.1"/>
	<circle class="st496" cx="388.9" cy="258.4" r="51.8"/>
	<circle class="st495" cx="389.6" cy="259.3" r="51.4"/>
	<circle class="st494" cx="390.4" cy="260.2" r="51.1"/>
	<circle class="st493" cx="391.2" cy="261.1" r="50.7"/>
	<circle class="st492" cx="392" cy="261.9" r="50.4"/>
	<circle class="st491" cx="392.7" cy="262.8" r="50.1"/>
	<circle class="st490" cx="393.5" cy="263.7" r="49.7"/>
	<circle class="st489" cx="394.3" cy="264.6" r="49.4"/>
	<circle class="st488" cx="395.1" cy="265.4" r="49"/>
	<circle class="st487" cx="395.8" cy="266.3" r="48.7"/>
	<circle class="st486" cx="396.6" cy="267.2" r="48.3"/>
	<circle class="st485" cx="397.4" cy="268.1" r="48"/>
	<circle class="st484" cx="398.2" cy="269" r="47.6"/>
	<circle class="st483" cx="398.9" cy="269.8" r="47.3"/>
	<circle class="st482" cx="399.7" cy="270.7" r="46.9"/>
	<circle class="st481" cx="400.5" cy="271.6" r="46.6"/>
	<circle class="st480" cx="401.3" cy="272.5" r="46.2"/>
	<circle class="st479" cx="402" cy="273.3" r="45.9"/>
	<circle class="st478" cx="402.8" cy="274.2" r="45.5"/>
	<circle class="st477" cx="403.6" cy="275.1" r="45.2"/>
	<circle class="st476" cx="404.3" cy="276" r="44.8"/>
	<circle class="st475" cx="405.1" cy="276.8" r="44.5"/>
	<circle class="st474" cx="405.9" cy="277.7" r="44.1"/>
	<circle class="st473" cx="406.7" cy="278.6" r="43.8"/>
	<circle class="st472" cx="407.4" cy="279.5" r="43.4"/>
	<circle class="st471" cx="408.2" cy="280.4" r="43.1"/>
	<circle class="st470" cx="409" cy="281.2" r="42.8"/>
	<circle class="st469" cx="409.8" cy="282.1" r="42.4"/>
	<circle class="st468" cx="410.5" cy="283" r="42.1"/>
	<circle class="st467" cx="411.3" cy="283.9" r="41.7"/>
	<circle class="st466" cx="412.1" cy="284.7" r="41.4"/>
	<circle class="st465" cx="412.9" cy="285.6" r="41"/>
	<circle class="st464" cx="413.6" cy="286.5" r="40.7"/>
	<circle class="st463" cx="414.4" cy="287.4" r="40.3"/>
	<circle class="st462" cx="415.2" cy="288.2" r="40"/>
	<circle class="st461" cx="416" cy="289.1" r="39.6"/>
	<circle class="st460" cx="416.7" cy="290" r="39.3"/>
	<circle class="st459" cx="417.5" cy="290.9" r="38.9"/>
	<circle class="st458" cx="418.3" cy="291.8" r="38.6"/>
	<circle class="st457" cx="419" cy="292.6" r="38.2"/>
	<circle class="st456" cx="419.8" cy="293.5" r="37.9"/>
	<circle class="st455" cx="420.6" cy="294.4" r="37.5"/>
	<circle class="st454" cx="421.4" cy="295.3" r="37.2"/>
	<circle class="st453" cx="422.1" cy="296.1" r="36.8"/>
	<circle class="st452" cx="422.9" cy="297" r="36.5"/>
	<circle class="st451" cx="423.7" cy="297.9" r="36.1"/>
	<circle class="st450" cx="424.5" cy="298.8" r="35.8"/>
	<circle class="st449" cx="425.2" cy="299.6" r="35.5"/>
	<circle class="st448" cx="426" cy="300.5" r="35.1"/>
	<circle class="st447" cx="426.8" cy="301.4" r="34.8"/>
	<circle class="st446" cx="427.6" cy="302.3" r="34.4"/>
	<circle class="st445" cx="428.3" cy="303.2" r="34.1"/>
	<circle class="st444" cx="429.1" cy="304" r="33.7"/>
	<circle class="st443" cx="429.9" cy="304.9" r="33.4"/>
	<circle class="st442" cx="430.7" cy="305.8" r="33"/>
	<circle class="st441" cx="431.4" cy="306.7" r="32.7"/>
	<circle class="st440" cx="432.2" cy="307.5" r="32.3"/>
	<circle class="st439" cx="433" cy="308.4" r="32"/>
	<circle class="st438" cx="433.7" cy="309.3" r="31.6"/>
	<circle class="st437" cx="434.5" cy="310.2" r="31.3"/>
	<circle class="st436" cx="435.3" cy="311.1" r="30.9"/>
	<circle class="st435" cx="436.1" cy="311.9" r="30.6"/>
	<circle class="st434" cx="436.8" cy="312.8" r="30.2"/>
	<circle class="st433" cx="437.6" cy="313.7" r="29.9"/>
	<circle class="st432" cx="438.4" cy="314.6" r="29.5"/>
	<circle class="st431" cx="439.2" cy="315.4" r="29.2"/>
	<circle class="st430" cx="439.9" cy="316.3" r="28.9"/>
	<circle class="st429" cx="440.7" cy="317.2" r="28.5"/>
	<circle class="st428" cx="441.5" cy="318.1" r="28.2"/>
	<circle class="st427" cx="442.3" cy="318.9" r="27.8"/>
	<circle class="st426" cx="443" cy="319.8" r="27.5"/>
	<circle class="st425" cx="443.8" cy="320.7" r="27.1"/>
	<circle class="st424" cx="444.6" cy="321.6" r="26.8"/>
	<circle class="st423" cx="445.3" cy="322.5" r="26.4"/>
	<circle class="st422" cx="446.1" cy="323.3" r="26.1"/>
	<circle class="st421" cx="446.9" cy="324.2" r="25.7"/>
	<circle class="st420" cx="447.7" cy="325.1" r="25.4"/>
	<circle class="st419" cx="448.4" cy="326" r="25"/>
	<circle class="st418" cx="449.2" cy="326.8" r="24.7"/>
	<circle class="st417" cx="450" cy="327.7" r="24.3"/>
	<circle class="st416" cx="450.8" cy="328.6" r="24"/>
	<circle class="st415" cx="451.5" cy="329.5" r="23.6"/>
	<circle class="st414" cx="452.3" cy="330.3" r="23.3"/>
	<circle class="st413" cx="453.1" cy="331.2" r="22.9"/>
	<circle class="st412" cx="453.9" cy="332.1" r="22.6"/>
	<circle class="st411" cx="454.6" cy="333" r="22.2"/>
	<circle class="st410" cx="455.4" cy="333.9" r="21.9"/>
	<circle class="st400" cx="456.2" cy="334.7" r="21.6"/>
	<circle class="st409" cx="457" cy="335.6" r="21.2"/>
	<circle class="st408" cx="457.7" cy="336.5" r="20.9"/>
	<circle class="st403" cx="458.5" cy="337.4" r="20.5"/>
	<circle class="st404" cx="459.3" cy="338.2" r="20.2"/>
	<circle class="st407" cx="460" cy="339.1" r="19.8"/>
	<circle class="st406" cx="460.8" cy="340" r="19.5"/>
	<circle class="st9" cx="461.6" cy="340.9" r="19.1"/>
</g>
</svg>
