<?xml version="1.0" encoding="utf-8"?>
<!-- Generator: Adobe Illustrator 25.0.1, SVG Export Plug-In . SVG Version: 6.00 Build 0)  -->
<svg version="1.1" id="Capa_1" xmlns="http://www.w3.org/2000/svg" xmlns:xlink="http://www.w3.org/1999/xlink" x="0px" y="0px"
	 viewBox="0 0 1903.5 424.6" style="enable-background:new 0 0 1903.5 424.6;" xml:space="preserve">
<style type="text/css">
	.st0{fill:#5ACAFB;}
	.st1{fill:#86A6A6;}
	.st2{fill:#00C700;}
	.st3{fill:#DB2C00;}
	.st4{fill:#61DAFB;}
	.st5{fill:#53BBFB;}
	.st6{fill:#3F8CFB;}
	.st7{fill:#469CFB;}
	.st8{fill:#4CABFB;}
	.st9{fill:#FFFFFF;}
	.st10{fill:#387DFB;}
	.st11{fill:#316DFB;}
	.st12{fill:url(#SVGID_1_);}
	.st13{fill:#454545;}
	.st14{fill:none;stroke:url(#SVGID_2_);stroke-width:3;stroke-linecap:round;stroke-linejoin:round;stroke-miterlimit:10;}
	.st15{fill:url(#SVGID_3_);}
	.st16{fill:none;stroke:url(#SVGID_4_);stroke-width:4;stroke-linecap:round;stroke-linejoin:round;stroke-miterlimit:10;}
	.st17{fill:none;stroke:url(#SVGID_5_);stroke-width:3;stroke-linecap:round;stroke-linejoin:round;stroke-miterlimit:10;}
	.st18{fill:url(#SVGID_6_);}
	.st19{fill:none;stroke:url(#SVGID_7_);stroke-width:3;stroke-linecap:round;stroke-linejoin:round;stroke-miterlimit:10;}
	.st20{fill:url(#SVGID_8_);}
	.st21{fill:url(#SVGID_9_);}
	.st22{fill:none;stroke:url(#SVGID_10_);stroke-width:3;stroke-linecap:round;stroke-linejoin:round;stroke-miterlimit:10;}
	.st23{fill:url(#SVGID_11_);}
	.st24{fill:url(#SVGID_12_);}
	.st25{fill:none;stroke:url(#SVGID_13_);stroke-width:3;stroke-linecap:round;stroke-linejoin:round;stroke-miterlimit:10;}
	.st26{fill:url(#SVGID_14_);}
	.st27{fill:url(#SVGID_15_);}
	.st28{fill:none;stroke:url(#SVGID_16_);stroke-width:3;stroke-linecap:round;stroke-linejoin:round;stroke-miterlimit:10;}
	.st29{fill:url(#SVGID_17_);}
	.st30{fill:url(#SVGID_18_);}
	.st31{fill:url(#SVGID_19_);}
	.st32{fill:url(#SVGID_20_);}
	.st33{fill:url(#SVGID_21_);}
	.st34{fill:url(#SVGID_22_);}
	.st35{fill:url(#SVGID_23_);}
	.st36{fill:url(#SVGID_24_);}
	.st37{fill:url(#SVGID_25_);}
	.st38{fill:url(#SVGID_26_);}
	.st39{fill:url(#SVGID_27_);}
	.st40{fill:url(#SVGID_28_);}
	.st41{fill:url(#SVGID_29_);}
	.st42{fill:url(#SVGID_30_);}
	.st43{fill:url(#SVGID_31_);}
	.st44{fill:url(#SVGID_32_);}
	.st45{fill:url(#SVGID_33_);}
	.st46{fill:url(#SVGID_34_);}
	.st47{fill:url(#SVGID_35_);}
	.st48{fill:url(#SVGID_36_);}
	.st49{fill:url(#SVGID_37_);}
	.st50{fill:url(#SVGID_38_);}
	.st51{fill:url(#SVGID_39_);}
	.st52{fill:url(#SVGID_40_);}
	.st53{fill:none;stroke:url(#SVGID_41_);stroke-width:3;stroke-linecap:round;stroke-linejoin:round;stroke-miterlimit:10;}
	.st54{fill:url(#SVGID_42_);}
	.st55{fill:url(#SVGID_43_);}
	.st56{fill:none;stroke:url(#SVGID_44_);stroke-width:3;stroke-linecap:round;stroke-linejoin:round;stroke-miterlimit:10;}
	.st57{fill:url(#SVGID_45_);}
	.st58{fill:url(#SVGID_46_);}
	.st59{fill:url(#SVGID_47_);}
	.st60{fill:url(#SVGID_48_);}
	.st61{fill:url(#SVGID_49_);}
	.st62{fill:url(#SVGID_50_);}
	.st63{fill:url(#SVGID_51_);}
	.st64{fill:url(#SVGID_52_);}
	.st65{fill:url(#SVGID_53_);}
	.st66{fill:none;stroke:url(#SVGID_54_);stroke-width:3;stroke-linecap:round;stroke-linejoin:round;stroke-miterlimit:10;}
	.st67{fill:url(#SVGID_55_);}
	.st68{fill:url(#SVGID_56_);}
	.st69{fill:url(#SVGID_57_);}
	.st70{fill:url(#SVGID_58_);}
	.st71{fill:url(#SVGID_59_);}
	.st72{fill:url(#SVGID_60_);}
	.st73{fill:url(#SVGID_61_);}
	.st74{fill:none;stroke:url(#SVGID_62_);stroke-width:3;stroke-linecap:round;stroke-linejoin:round;stroke-miterlimit:10;}
	.st75{fill:#00FF00;}
	.st76{fill:#FF4500;}
	.st77{fill:url(#SVGID_63_);}
	.st78{fill:url(#SVGID_64_);}
	.st79{fill:url(#SVGID_65_);}
	.st80{fill:url(#SVGID_66_);}
	.st81{fill:url(#SVGID_67_);}
	.st82{fill:url(#SVGID_68_);}
	.st83{fill:url(#SVGID_69_);}
	.st84{fill:url(#SVGID_70_);}
	.st85{fill:url(#SVGID_71_);}
	.st86{fill:url(#SVGID_72_);}
	.st87{fill:#E6E6E6;}
	.st88{fill:url(#SVGID_73_);}
	.st89{fill:url(#SVGID_74_);}
	.st90{fill:url(#SVGID_75_);}
	.st91{fill:url(#SVGID_76_);}
	.st92{fill:url(#SVGID_77_);}
	.st93{fill:url(#SVGID_78_);}
	.st94{fill:url(#SVGID_79_);}
	.st95{fill:url(#SVGID_80_);}
	.st96{fill:url(#SVGID_81_);}
	.st97{fill:#61D9FB;}
	.st98{fill:#60D8FB;}
	.st99{fill:#60D7FB;}
	.st100{fill:#5FD6FB;}
	.st101{fill:#5FD5FB;}
	.st102{fill:#5ED4FB;}
	.st103{fill:#5ED3FB;}
	.st104{fill:#5DD2FB;}
	.st105{fill:#5DD1FB;}
	.st106{fill:#5DD0FB;}
	.st107{fill:#5CCFFB;}
	.st108{fill:#5CCEFB;}
	.st109{fill:#5BCDFB;}
	.st110{fill:#5BCCFB;}
	.st111{fill:#5ACBFB;}
	.st112{fill:#5AC9FB;}
	.st113{fill:#59C8FB;}
	.st114{fill:#59C7FB;}
	.st115{fill:#58C6FB;}
	.st116{fill:#58C5FB;}
	.st117{fill:#57C4FB;}
	.st118{fill:#57C3FB;}
	.st119{fill:#56C2FB;}
	.st120{fill:#56C1FB;}
	.st121{fill:#55C0FB;}
	.st122{fill:#55BFFB;}
	.st123{fill:#54BEFB;}
	.st124{fill:#54BDFB;}
	.st125{fill:#53BCFB;}
	.st126{fill:#53BAFB;}
	.st127{fill:#52B9FB;}
	.st128{fill:#52B8FB;}
	.st129{fill:#51B7FB;}
	.st130{fill:#51B6FB;}
	.st131{fill:#50B5FB;}
	.st132{fill:#50B4FB;}
	.st133{fill:#50B3FB;}
	.st134{fill:#4FB2FB;}
	.st135{fill:#4FB1FB;}
	.st136{fill:#4EB0FB;}
	.st137{fill:#4EAFFB;}
	.st138{fill:#4DAEFB;}
	.st139{fill:#4DADFB;}
	.st140{fill:#4CACFB;}
	.st141{fill:#4CAAFB;}
	.st142{fill:#4BA9FB;}
	.st143{fill:#4BA8FB;}
	.st144{fill:#4AA7FB;}
	.st145{fill:#4AA6FB;}
	.st146{fill:#49A5FB;}
	.st147{fill:#49A4FB;}
	.st148{fill:#49A3FB;}
	.st149{fill:#48A2FB;}
	.st150{fill:#48A1FB;}
	.st151{fill:#47A0FB;}
	.st152{fill:#479FFB;}
	.st153{fill:#469EFB;}
	.st154{fill:#469DFB;}
	.st155{fill:#459BFB;}
	.st156{fill:#459AFB;}
	.st157{fill:#4499FB;}
	.st158{fill:#4498FB;}
	.st159{fill:#4397FB;}
	.st160{fill:#4396FB;}
	.st161{fill:#4395FB;}
	.st162{fill:#4294FB;}
	.st163{fill:#4293FB;}
	.st164{fill:#4192FB;}
	.st165{fill:#4191FB;}
	.st166{fill:#4090FB;}
	.st167{fill:#408FFB;}
	.st168{fill:#408EFB;}
	.st169{fill:#3F8DFB;}
	.st170{fill:#3E8CFB;}
	.st171{fill:#3E8BFB;}
	.st172{fill:#3D8AFB;}
	.st173{fill:#3D89FB;}
	.st174{fill:#3D88FB;}
	.st175{fill:#3C87FB;}
	.st176{fill:#3C86FB;}
	.st177{fill:#3B85FB;}
	.st178{fill:#3B84FB;}
	.st179{fill:#3A83FB;}
	.st180{fill:#3A82FB;}
	.st181{fill:#3A81FB;}
	.st182{fill:#3980FB;}
	.st183{fill:#397FFB;}
	.st184{fill:#387EFB;}
	.st185{fill:#377CFB;}
	.st186{fill:#377BFB;}
	.st187{fill:#377AFB;}
	.st188{fill:#3679FB;}
	.st189{fill:#3678FB;}
	.st190{fill:#3577FB;}
	.st191{fill:#3576FB;}
	.st192{fill:#3475FB;}
	.st193{fill:#3474FB;}
	.st194{fill:#3473FB;}
	.st195{fill:#3372FB;}
	.st196{fill:#3371FB;}
	.st197{fill:#3270FB;}
	.st198{fill:#326FFB;}
	.st199{fill:#316EFB;}
	.st200{fill:#387CFB;}
	.st201{fill:#3B83FB;}
	.st202{fill:#3E8AFB;}
	.st203{fill:#3F8EFB;}
	.st204{fill:#4295FB;}
	.st205{fill:#4AA5FB;}
	.st206{fill:#4BA7FB;}
	.st207{fill:#4CA9FB;}
	.st208{fill:#4DACFB;}
	.st209{fill:#4EAEFB;}
	.st210{fill:#4FB0FB;}
	.st211{fill:#50B2FB;}
	.st212{fill:#51B5FB;}
	.st213{fill:#52B7FB;}
	.st214{fill:#53B9FB;}
	.st215{fill:#54BCFB;}
	.st216{fill:#55BEFB;}
	.st217{fill:#56C0FB;}
	.st218{fill:#57C2FB;}
	.st219{fill:#5ED2FB;}
	.st220{fill:#5BCBFB;}
	.st221{fill:#58C4FB;}
	.st222{fill:#55BDFB;}
	.st223{fill:#54BBFB;}
	.st224{fill:#52B6FB;}
	.st225{fill:#51B4FB;}
	.st226{fill:#48A0FB;}
	.st227{fill:#479EFB;}
	.st228{fill:#4599FB;}
	.st229{fill:#4497FB;}
	.st230{fill:#4292FB;}
	.st231{fill:#4190FB;}
	.st232{fill:#3F8BFB;}
	.st233{fill:#3E89FB;}
	.st234{fill:#3D87FB;}
	.st235{fill:#3C85FB;}
	.st236{fill:#3C84FB;}
	.st237{fill:#3B82FB;}
	.st238{fill:#3A80FB;}
	.st239{fill:#397EFB;}
	.st240{fill:#3575FB;}
	.st241{fill:none;stroke:#61DAFB;stroke-width:18;stroke-linecap:round;stroke-linejoin:round;stroke-miterlimit:10;}
</style>
<g>
	<g>
		<g>
			<path class="st9" d="M813.7,113v34.6h-32.8V356h-35.1V147.6H611.8V113H813.7z"/>
			<path class="st9" d="M909.8,356h-35.1V34.3h35.1V117c6.9-5.2,16-7.8,27.1-7.8c25.7,0.1,38.5,17.1,38.5,51.2V356h-35V160.3
				c0-11-5.1-16.5-15.4-16.5c-10.1,0-15.2,5.4-15.2,16.3V356z"/>
			<path class="st9" d="M1157.5,308.8c0,34-16.8,51.1-50.4,51.1c-33.5,0-50.3-17-50.3-51.1V113h35.1v195.8c0,11,5.1,16.5,15.2,16.5
				c10.2,0,15.4-5.5,15.4-16.5V113h35V308.8z"/>
			<path class="st9" d="M1274,356h-35V160.2c0-34,16.8-51,50.3-51c33.6,0,50.4,17,50.4,51V356h-35.1V160.2
				c0-10.9-5.1-16.4-15.2-16.5h-0.3c-10.1,0-15.1,5.5-15.1,16.5V356z"/>
			<path class="st9" d="M1486.7,34.3h35v274.6c0,34-16.8,51.1-50.4,51.1c-33.5,0-50.3-17-50.3-51.1V160.3c0-34,12.8-51.1,38.5-51.2
				c11.1,0,20.2,2.6,27.1,7.8V34.3z M1486.7,160.2c-0.1-10.9-5.2-16.3-15.2-16.3c-10.2,0-15.4,5.5-15.4,16.5v148.5
				c0,11,5.1,16.5,15.2,16.5c10.2,0,15.4-5.5,15.4-16.5V160.2z"/>
			<path class="st9" d="M1638,251.9v57c0,11,5.1,16.5,15.2,16.5c10.2,0,15.4-5.5,15.4-16.5v-32.7h35.1v32.7
				c0,34-16.8,51.1-50.4,51.1c-33.5,0-50.3-17-50.3-51.1V160.2c0-34,16.8-51,50.3-51c33.6,0,50.4,17,50.4,51v91.6H1638z M1638,217.2
				h30.6v-57c0-10.9-5.1-16.4-15.2-16.5h-0.3c-10.1,0-15.1,5.5-15.1,16.5V217.2z"/>
		</g>
	</g>
	<path class="st9" d="M1870.2,109.2v34.5H1835c-10.1,0-15.1,5.5-15.1,16.5V356h-35.1V160.2c0-34,16.7-51,50.3-51H1870.2z"/>
</g>
<g>
	<circle class="st4" cx="53.4" cy="81.5" r="19.1"/>
	<circle class="st97" cx="54.5" cy="82.8" r="19.4"/>
	<circle class="st98" cx="55.7" cy="84.2" r="19.6"/>
	<circle class="st99" cx="56.8" cy="85.5" r="19.8"/>
	<circle class="st100" cx="58" cy="86.8" r="20.1"/>
	<circle class="st101" cx="59.2" cy="88.2" r="20.3"/>
	<circle class="st102" cx="60.3" cy="89.5" r="20.6"/>
	<circle class="st103" cx="61.5" cy="90.9" r="20.8"/>
	<circle class="st219" cx="62.6" cy="92.2" r="21.1"/>
	<circle class="st105" cx="63.8" cy="93.6" r="21.3"/>
	<circle class="st106" cx="64.9" cy="94.9" r="21.5"/>
	<circle class="st107" cx="66.1" cy="96.3" r="21.8"/>
	<circle class="st108" cx="67.3" cy="97.6" r="22"/>
	<circle class="st109" cx="68.4" cy="99" r="22.3"/>
	<circle class="st110" cx="69.6" cy="100.3" r="22.5"/>
	<circle class="st220" cx="70.7" cy="101.6" r="22.7"/>
	<circle class="st0" cx="71.9" cy="103" r="23"/>
	<circle class="st112" cx="73" cy="104.3" r="23.2"/>
	<circle class="st113" cx="74.2" cy="105.7" r="23.5"/>
	<circle class="st114" cx="75.4" cy="107" r="23.7"/>
	<circle class="st115" cx="76.5" cy="108.4" r="24"/>
	<circle class="st116" cx="77.7" cy="109.7" r="24.2"/>
	<circle class="st221" cx="78.8" cy="111.1" r="24.4"/>
	<circle class="st118" cx="80" cy="112.4" r="24.7"/>
	<circle class="st218" cx="81.2" cy="113.8" r="24.9"/>
	<circle class="st120" cx="82.3" cy="115.1" r="25.2"/>
	<circle class="st217" cx="83.5" cy="116.5" r="25.4"/>
	<circle class="st122" cx="84.6" cy="117.8" r="25.7"/>
	<circle class="st216" cx="85.8" cy="119.1" r="25.9"/>
	<circle class="st222" cx="86.9" cy="120.5" r="26.1"/>
	<circle class="st215" cx="88.1" cy="121.8" r="26.4"/>
	<circle class="st223" cx="89.3" cy="123.2" r="26.6"/>
	<circle class="st126" cx="90.4" cy="124.5" r="26.9"/>
	<circle class="st214" cx="91.6" cy="125.9" r="27.1"/>
	<circle class="st128" cx="92.7" cy="127.2" r="27.3"/>
	<circle class="st213" cx="93.9" cy="128.6" r="27.6"/>
	<circle class="st224" cx="95" cy="129.9" r="27.8"/>
	<circle class="st212" cx="96.2" cy="131.3" r="28.1"/>
	<circle class="st225" cx="97.4" cy="132.6" r="28.3"/>
	<circle class="st133" cx="98.5" cy="134" r="28.6"/>
	<circle class="st133" cx="99.7" cy="135.3" r="28.8"/>
	<circle class="st134" cx="100.8" cy="136.6" r="29"/>
	<circle class="st135" cx="102" cy="138" r="29.3"/>
	<circle class="st136" cx="103.2" cy="139.3" r="29.5"/>
	<circle class="st137" cx="104.3" cy="140.7" r="29.8"/>
	<circle class="st209" cx="105.5" cy="142" r="30"/>
	<circle class="st139" cx="106.6" cy="143.4" r="30.2"/>
	<circle class="st208" cx="107.8" cy="144.7" r="30.5"/>
	<circle class="st8" cx="108.9" cy="146.1" r="30.7"/>
	<circle class="st141" cx="110.1" cy="147.4" r="31"/>
	<circle class="st142" cx="111.3" cy="148.8" r="31.2"/>
	<circle class="st143" cx="112.4" cy="150.1" r="31.5"/>
	<circle class="st206" cx="113.6" cy="151.5" r="31.7"/>
	<circle class="st145" cx="114.7" cy="152.8" r="31.9"/>
	<circle class="st205" cx="115.9" cy="154.1" r="32.2"/>
	<circle class="st147" cx="117" cy="155.5" r="32.4"/>
	<circle class="st148" cx="118.2" cy="156.8" r="32.7"/>
	<circle class="st149" cx="119.4" cy="158.2" r="32.9"/>
	<circle class="st150" cx="120.5" cy="159.5" r="33.2"/>
	<circle class="st226" cx="121.7" cy="160.9" r="33.4"/>
	<circle class="st152" cx="122.8" cy="162.2" r="33.6"/>
	<circle class="st227" cx="124" cy="163.6" r="33.9"/>
	<circle class="st154" cx="125.2" cy="164.9" r="34.1"/>
	<circle class="st7" cx="126.3" cy="166.3" r="34.4"/>
	<circle class="st155" cx="127.5" cy="167.6" r="34.6"/>
	<circle class="st156" cx="128.6" cy="169" r="34.8"/>
	<circle class="st228" cx="129.8" cy="170.3" r="35.1"/>
	<circle class="st158" cx="130.9" cy="171.6" r="35.3"/>
	<circle class="st229" cx="132.1" cy="173" r="35.6"/>
	<circle class="st160" cx="133.3" cy="174.3" r="35.8"/>
	<circle class="st161" cx="134.4" cy="175.7" r="36.1"/>
	<circle class="st162" cx="135.6" cy="177" r="36.3"/>
	<circle class="st163" cx="136.7" cy="178.4" r="36.5"/>
	<circle class="st230" cx="137.9" cy="179.7" r="36.8"/>
	<circle class="st165" cx="139" cy="181.1" r="37"/>
	<circle class="st231" cx="140.2" cy="182.4" r="37.3"/>
	<circle class="st167" cx="141.4" cy="183.8" r="37.5"/>
	<circle class="st168" cx="142.5" cy="185.1" r="37.8"/>
	<circle class="st169" cx="143.7" cy="186.4" r="38"/>
	<circle class="st6" cx="144.8" cy="187.8" r="38.2"/>
	<circle class="st232" cx="150.7" cy="188.1" r="39.4"/>
	<circle class="st202" cx="156.7" cy="188.3" r="40.6"/>
	<circle class="st233" cx="162.6" cy="188.6" r="41.8"/>
	<circle class="st174" cx="168.5" cy="188.8" r="43"/>
	<circle class="st234" cx="174.4" cy="189.1" r="44.2"/>
	<circle class="st176" cx="180.3" cy="189.4" r="45.4"/>
	<circle class="st235" cx="186.2" cy="189.6" r="46.6"/>
	<circle class="st236" cx="192.1" cy="189.9" r="47.8"/>
	<circle class="st201" cx="198" cy="190.1" r="49"/>
	<circle class="st237" cx="203.9" cy="190.4" r="50.2"/>
	<circle class="st181" cx="209.8" cy="190.7" r="51.4"/>
	<circle class="st238" cx="215.8" cy="190.9" r="52.6"/>
	<circle class="st183" cx="221.7" cy="191.2" r="53.8"/>
	<circle class="st239" cx="227.6" cy="191.5" r="55"/>
	<circle class="st10" cx="233.5" cy="191.7" r="56.2"/>
	<circle class="st10" cx="239.4" cy="192" r="57.4"/>
	<circle class="st200" cx="245.3" cy="192.2" r="58.5"/>
	<circle class="st186" cx="251.2" cy="192.5" r="59.7"/>
	<circle class="st187" cx="257.1" cy="192.8" r="60.9"/>
	<circle class="st188" cx="263" cy="193" r="62.1"/>
	<circle class="st189" cx="268.9" cy="193.3" r="63.3"/>
	<circle class="st190" cx="274.9" cy="193.5" r="64.5"/>
	<circle class="st191" cx="280.8" cy="193.8" r="65.7"/>
	<circle class="st240" cx="286.7" cy="194.1" r="66.9"/>
	<circle class="st193" cx="292.6" cy="194.3" r="68.1"/>
	<circle class="st194" cx="298.5" cy="194.6" r="69.3"/>
	<circle class="st195" cx="304.4" cy="194.9" r="70.5"/>
	<circle class="st196" cx="310.3" cy="195.1" r="71.7"/>
	<circle class="st197" cx="316.2" cy="195.4" r="72.9"/>
	<circle class="st198" cx="322.1" cy="195.6" r="74.1"/>
	<circle class="st199" cx="328" cy="195.9" r="75.3"/>
	<circle class="st11" cx="333.9" cy="196.2" r="76.5"/>
	<circle class="st199" cx="335.1" cy="197.5" r="75.9"/>
	<circle class="st198" cx="336.3" cy="198.8" r="75.4"/>
	<circle class="st197" cx="337.4" cy="200.1" r="74.9"/>
	<circle class="st196" cx="338.6" cy="201.4" r="74.4"/>
	<circle class="st195" cx="339.8" cy="202.7" r="73.9"/>
	<circle class="st194" cx="340.9" cy="204.1" r="73.3"/>
	<circle class="st193" cx="342.1" cy="205.4" r="72.8"/>
	<circle class="st192" cx="343.2" cy="206.7" r="72.3"/>
	<circle class="st191" cx="344.4" cy="208" r="71.8"/>
	<circle class="st190" cx="345.6" cy="209.3" r="71.3"/>
	<circle class="st189" cx="346.7" cy="210.6" r="70.7"/>
	<circle class="st188" cx="347.9" cy="212" r="70.2"/>
	<circle class="st187" cx="349" cy="213.3" r="69.7"/>
	<circle class="st186" cx="350.2" cy="214.6" r="69.2"/>
	<circle class="st200" cx="351.4" cy="215.9" r="68.6"/>
	<circle class="st10" cx="352.5" cy="217.2" r="68.1"/>
	<circle class="st184" cx="353.7" cy="218.5" r="67.6"/>
	<circle class="st183" cx="354.8" cy="219.8" r="67.1"/>
	<circle class="st182" cx="356" cy="221.2" r="66.6"/>
	<circle class="st181" cx="357.2" cy="222.5" r="66"/>
	<circle class="st180" cx="358.3" cy="223.8" r="65.5"/>
	<circle class="st201" cx="359.5" cy="225.1" r="65"/>
	<circle class="st178" cx="360.6" cy="226.4" r="64.5"/>
	<circle class="st177" cx="361.8" cy="227.7" r="64"/>
	<circle class="st176" cx="363" cy="229.1" r="63.4"/>
	<circle class="st175" cx="364.1" cy="230.4" r="62.9"/>
	<circle class="st174" cx="365.3" cy="231.7" r="62.4"/>
	<circle class="st173" cx="366.4" cy="233" r="61.9"/>
	<circle class="st202" cx="367.6" cy="234.3" r="61.3"/>
	<circle class="st171" cx="368.8" cy="235.6" r="60.8"/>
	<circle class="st6" cx="369.9" cy="236.9" r="60.3"/>
	<circle class="st169" cx="371.1" cy="238.3" r="59.8"/>
	<circle class="st203" cx="372.2" cy="239.6" r="59.3"/>
	<circle class="st167" cx="373.4" cy="240.9" r="58.7"/>
	<circle class="st166" cx="374.6" cy="242.2" r="58.2"/>
	<circle class="st165" cx="375.7" cy="243.5" r="57.7"/>
	<circle class="st164" cx="376.9" cy="244.8" r="57.2"/>
	<circle class="st163" cx="378" cy="246.2" r="56.7"/>
	<circle class="st162" cx="379.2" cy="247.5" r="56.1"/>
	<circle class="st204" cx="380.4" cy="248.8" r="55.6"/>
	<circle class="st160" cx="381.5" cy="250.1" r="55.1"/>
	<circle class="st159" cx="382.7" cy="251.4" r="54.6"/>
	<circle class="st158" cx="383.8" cy="252.7" r="54.1"/>
	<circle class="st157" cx="385" cy="254" r="53.5"/>
	<circle class="st156" cx="386.2" cy="255.4" r="53"/>
	<circle class="st155" cx="387.3" cy="256.7" r="52.5"/>
	<circle class="st7" cx="388.5" cy="258" r="52"/>
	<circle class="st154" cx="389.6" cy="259.3" r="51.4"/>
	<circle class="st153" cx="390.8" cy="260.6" r="50.9"/>
	<circle class="st152" cx="392" cy="261.9" r="50.4"/>
	<circle class="st151" cx="393.1" cy="263.3" r="49.9"/>
	<circle class="st150" cx="394.3" cy="264.6" r="49.4"/>
	<circle class="st149" cx="395.5" cy="265.9" r="48.8"/>
	<circle class="st148" cx="396.6" cy="267.2" r="48.3"/>
	<circle class="st147" cx="397.8" cy="268.5" r="47.8"/>
	<circle class="st147" cx="398.9" cy="269.8" r="47.3"/>
	<circle class="st205" cx="400.1" cy="271.1" r="46.8"/>
	<circle class="st145" cx="401.3" cy="272.5" r="46.2"/>
	<circle class="st206" cx="402.4" cy="273.8" r="45.7"/>
	<circle class="st143" cx="403.6" cy="275.1" r="45.2"/>
	<circle class="st207" cx="404.7" cy="276.4" r="44.7"/>
	<circle class="st141" cx="405.9" cy="277.7" r="44.1"/>
	<circle class="st8" cx="407.1" cy="279" r="43.6"/>
	<circle class="st208" cx="408.2" cy="280.4" r="43.1"/>
	<circle class="st139" cx="409.4" cy="281.7" r="42.6"/>
	<circle class="st209" cx="410.5" cy="283" r="42.1"/>
	<circle class="st137" cx="411.7" cy="284.3" r="41.5"/>
	<circle class="st210" cx="412.9" cy="285.6" r="41"/>
	<circle class="st135" cx="414" cy="286.9" r="40.5"/>
	<circle class="st211" cx="415.2" cy="288.2" r="40"/>
	<circle class="st133" cx="416.3" cy="289.6" r="39.5"/>
	<circle class="st132" cx="417.5" cy="290.9" r="38.9"/>
	<circle class="st212" cx="418.7" cy="292.2" r="38.4"/>
	<circle class="st130" cx="419.8" cy="293.5" r="37.9"/>
	<circle class="st213" cx="421" cy="294.8" r="37.4"/>
	<circle class="st128" cx="422.1" cy="296.1" r="36.8"/>
	<circle class="st214" cx="423.3" cy="297.5" r="36.3"/>
	<circle class="st126" cx="424.5" cy="298.8" r="35.8"/>
	<circle class="st5" cx="425.6" cy="300.1" r="35.3"/>
	<circle class="st215" cx="426.8" cy="301.4" r="34.8"/>
	<circle class="st124" cx="427.9" cy="302.7" r="34.2"/>
	<circle class="st216" cx="429.1" cy="304" r="33.7"/>
	<circle class="st122" cx="430.3" cy="305.3" r="33.2"/>
	<circle class="st217" cx="431.4" cy="306.7" r="32.7"/>
	<circle class="st120" cx="432.6" cy="308" r="32.2"/>
	<circle class="st218" cx="433.7" cy="309.3" r="31.6"/>
	<circle class="st118" cx="434.9" cy="310.6" r="31.1"/>
	<circle class="st117" cx="436.1" cy="311.9" r="30.6"/>
	<circle class="st116" cx="437.2" cy="313.2" r="30.1"/>
	<circle class="st115" cx="438.4" cy="314.6" r="29.5"/>
	<circle class="st114" cx="439.5" cy="315.9" r="29"/>
	<circle class="st113" cx="440.7" cy="317.2" r="28.5"/>
	<circle class="st112" cx="441.9" cy="318.5" r="28"/>
	<circle class="st0" cx="443" cy="319.8" r="27.5"/>
	<circle class="st111" cx="444.2" cy="321.1" r="26.9"/>
	<circle class="st110" cx="445.3" cy="322.5" r="26.4"/>
	<circle class="st109" cx="446.5" cy="323.8" r="25.9"/>
	<circle class="st108" cx="447.7" cy="325.1" r="25.4"/>
	<circle class="st107" cx="448.8" cy="326.4" r="24.9"/>
	<circle class="st106" cx="450" cy="327.7" r="24.3"/>
	<circle class="st105" cx="451.2" cy="329" r="23.8"/>
	<circle class="st219" cx="452.3" cy="330.3" r="23.3"/>
	<circle class="st103" cx="453.5" cy="331.7" r="22.8"/>
	<circle class="st102" cx="454.6" cy="333" r="22.2"/>
	<circle class="st101" cx="455.8" cy="334.3" r="21.7"/>
	<circle class="st100" cx="457" cy="335.6" r="21.2"/>
	<circle class="st99" cx="458.1" cy="336.9" r="20.7"/>
	<circle class="st98" cx="459.3" cy="338.2" r="20.2"/>
	<circle class="st97" cx="460.4" cy="339.6" r="19.6"/>
	<circle class="st4" cx="461.6" cy="340.9" r="19.1"/>
</g>
</svg>
