<?xml version="1.0" encoding="utf-8"?>
<!-- Generator: Adobe Illustrator 25.0.1, SVG Export Plug-In . SVG Version: 6.00 Build 0)  -->
<svg version="1.1" id="Capa_1" xmlns="http://www.w3.org/2000/svg" xmlns:xlink="http://www.w3.org/1999/xlink" x="0px" y="0px"
	 viewBox="0 0 828.5 270.3" style="enable-background:new 0 0 828.5 270.3;" xml:space="preserve">
<style type="text/css">
	.st0{fill:#86A6A6;}
	.st1{fill:#00C700;}
	.st2{fill:#DB2C00;}
	.st3{fill:#61DAFB;}
	.st4{fill:#5ACAFB;}
	.st5{fill:#53BBFB;}
	.st6{fill:#3F8CFB;}
	.st7{fill:#469CFB;}
	.st8{fill:#4CABFB;}
	.st9{fill:#FFFFFF;}
	.st10{fill:#387DFB;}
	.st11{fill:#316DFB;}
	.st12{fill:url(#SVGID_1_);}
	.st13{fill:#454545;}
	.st14{fill:none;stroke:url(#SVGID_2_);stroke-width:3;stroke-linecap:round;stroke-linejoin:round;stroke-miterlimit:10;}
	.st15{fill:url(#SVGID_3_);}
	.st16{fill:none;stroke:url(#SVGID_4_);stroke-width:4;stroke-linecap:round;stroke-linejoin:round;stroke-miterlimit:10;}
	.st17{fill:none;stroke:url(#SVGID_5_);stroke-width:3;stroke-linecap:round;stroke-linejoin:round;stroke-miterlimit:10;}
	.st18{fill:url(#SVGID_6_);}
	.st19{fill:none;stroke:url(#SVGID_7_);stroke-width:3;stroke-linecap:round;stroke-linejoin:round;stroke-miterlimit:10;}
	.st20{fill:url(#SVGID_8_);}
	.st21{fill:url(#SVGID_9_);}
	.st22{fill:none;stroke:url(#SVGID_10_);stroke-width:3;stroke-linecap:round;stroke-linejoin:round;stroke-miterlimit:10;}
	.st23{fill:url(#SVGID_11_);}
	.st24{fill:url(#SVGID_12_);}
	.st25{fill:none;stroke:url(#SVGID_13_);stroke-width:3;stroke-linecap:round;stroke-linejoin:round;stroke-miterlimit:10;}
	.st26{fill:url(#SVGID_14_);}
	.st27{fill:url(#SVGID_15_);}
	.st28{fill:none;stroke:url(#SVGID_16_);stroke-width:3;stroke-linecap:round;stroke-linejoin:round;stroke-miterlimit:10;}
	.st29{fill:url(#SVGID_17_);}
	.st30{fill:url(#SVGID_18_);}
	.st31{fill:url(#SVGID_19_);}
	.st32{fill:url(#SVGID_20_);}
	.st33{fill:url(#SVGID_21_);}
	.st34{fill:url(#SVGID_22_);}
	.st35{fill:url(#SVGID_23_);}
	.st36{fill:url(#SVGID_24_);}
	.st37{fill:url(#SVGID_25_);}
	.st38{fill:url(#SVGID_26_);}
	.st39{fill:url(#SVGID_27_);}
	.st40{fill:url(#SVGID_28_);}
	.st41{fill:url(#SVGID_29_);}
	.st42{fill:url(#SVGID_30_);}
	.st43{fill:url(#SVGID_31_);}
	.st44{fill:url(#SVGID_32_);}
	.st45{fill:url(#SVGID_33_);}
	.st46{fill:url(#SVGID_34_);}
	.st47{fill:url(#SVGID_35_);}
	.st48{fill:url(#SVGID_36_);}
	.st49{fill:url(#SVGID_37_);}
	.st50{fill:url(#SVGID_38_);}
	.st51{fill:url(#SVGID_39_);}
	.st52{fill:url(#SVGID_40_);}
	.st53{fill:none;stroke:url(#SVGID_41_);stroke-width:3;stroke-linecap:round;stroke-linejoin:round;stroke-miterlimit:10;}
	.st54{fill:url(#SVGID_42_);}
	.st55{fill:url(#SVGID_43_);}
	.st56{fill:none;stroke:url(#SVGID_44_);stroke-width:3;stroke-linecap:round;stroke-linejoin:round;stroke-miterlimit:10;}
	.st57{fill:url(#SVGID_45_);}
	.st58{fill:url(#SVGID_46_);}
	.st59{fill:url(#SVGID_47_);}
	.st60{fill:url(#SVGID_48_);}
	.st61{fill:url(#SVGID_49_);}
	.st62{fill:url(#SVGID_50_);}
	.st63{fill:url(#SVGID_51_);}
	.st64{fill:url(#SVGID_52_);}
	.st65{fill:url(#SVGID_53_);}
	.st66{fill:none;stroke:url(#SVGID_54_);stroke-width:3;stroke-linecap:round;stroke-linejoin:round;stroke-miterlimit:10;}
	.st67{fill:url(#SVGID_55_);}
	.st68{fill:url(#SVGID_56_);}
	.st69{fill:url(#SVGID_57_);}
	.st70{fill:url(#SVGID_58_);}
	.st71{fill:url(#SVGID_59_);}
	.st72{fill:url(#SVGID_60_);}
	.st73{fill:url(#SVGID_61_);}
	.st74{fill:none;stroke:url(#SVGID_62_);stroke-width:3;stroke-linecap:round;stroke-linejoin:round;stroke-miterlimit:10;}
	.st75{fill:#00FF00;}
	.st76{fill:#FF4500;}
	.st77{fill:url(#SVGID_63_);}
	.st78{fill:url(#SVGID_64_);}
	.st79{fill:url(#SVGID_65_);}
	.st80{fill:url(#SVGID_66_);}
	.st81{fill:url(#SVGID_67_);}
	.st82{fill:url(#SVGID_68_);}
	.st83{fill:url(#SVGID_69_);}
	.st84{fill:url(#SVGID_70_);}
	.st85{fill:url(#SVGID_71_);}
	.st86{fill:url(#SVGID_72_);}
	.st87{fill:#E6E6E6;}
	.st88{fill:url(#SVGID_73_);}
	.st89{fill:url(#SVGID_74_);}
	.st90{fill:url(#SVGID_75_);}
	.st91{fill:url(#SVGID_76_);}
	.st92{fill:url(#SVGID_77_);}
	.st93{fill:url(#SVGID_78_);}
	.st94{fill:url(#SVGID_79_);}
	.st95{fill:url(#SVGID_80_);}
	.st96{fill:url(#SVGID_81_);}
</style>
<g>
	<g>
		
			<linearGradient id="SVGID_1_" gradientUnits="userSpaceOnUse" x1="155.8367" y1="145.6423" x2="155.8367" y2="49.0785" gradientTransform="matrix(-1 0 0 1 268.4413 0)">
			<stop  offset="0" style="stop-color:#316DFB"/>
			<stop  offset="1" style="stop-color:#61DAFB"/>
		</linearGradient>
		<path class="st12" d="M68.2,49.1h30.6c3.1,0,6.1,1.2,8.3,3.5l31,31c2.6,2.6,0.8,7.2-3,7.2H105l51.4,51.4c1.8,1.8-0.7,4.6-2.7,3.1
			l-85.6-66h37L68.2,49.1z"/>
	</g>
	<g>
		
			<linearGradient id="SVGID_2_" gradientUnits="userSpaceOnUse" x1="725.7699" y1="-620.5552" x2="862.1422" y2="-620.5552" gradientTransform="matrix(-1 0 0 1 936.963 745.0541)">
			<stop  offset="0" style="stop-color:#316DFB"/>
			<stop  offset="1" style="stop-color:#61DAFB"/>
		</linearGradient>
		<path style="fill:url(#SVGID_2_);" d="M143,56.3c-3.5,0-6.4,3.1-5.9,6.7c0.4,3,3.1,5.1,6.1,5.1c32.2,0.1,58.1,27.4,56,60.1
			c-1.9,27.9-24.4,50.5-52.4,52.4c-32.7,2.2-60-23.8-60.1-56c0-3-2.2-5.7-5.1-6.1c-3.6-0.5-6.7,2.3-6.7,5.9
			c0,38.7,32.4,69.9,71.4,68.1c34.9-1.6,63.2-30,64.9-64.8C212.9,88.7,181.7,56.3,143,56.3z"/>
	</g>
</g>
<g>
	<g>
		<g>
			<g>
				<linearGradient id="SVGID_3_" gradientUnits="userSpaceOnUse" x1="324.8981" y1="194.007" x2="324.8981" y2="103.9964">
					<stop  offset="0" style="stop-color:#EAEAEA"/>
					<stop  offset="6.878301e-03" style="stop-color:#E6E6E6"/>
					<stop  offset="3.932634e-02" style="stop-color:#D7D7D7"/>
					<stop  offset="7.815093e-02" style="stop-color:#CFCFCF"/>
					<stop  offset="0.1397" style="stop-color:#CCCCCC"/>
					<stop  offset="0.3731" style="stop-color:#DBDBDB"/>
					<stop  offset="0.7323" style="stop-color:#ECECEC"/>
					<stop  offset="1" style="stop-color:#F2F2F2"/>
				</linearGradient>
				<path class="st15" d="M362.3,104v12.8h-12.2V194h-13v-77.2h-49.7V104H362.3z"/>
			</g>
			<g>
				<linearGradient id="SVGID_4_" gradientUnits="userSpaceOnUse" x1="403.5535" y1="194.007" x2="403.5535" y2="74.8207">
					<stop  offset="0" style="stop-color:#EAEAEA"/>
					<stop  offset="6.878301e-03" style="stop-color:#E6E6E6"/>
					<stop  offset="3.932634e-02" style="stop-color:#D7D7D7"/>
					<stop  offset="7.815093e-02" style="stop-color:#CFCFCF"/>
					<stop  offset="0.1397" style="stop-color:#CCCCCC"/>
					<stop  offset="0.3731" style="stop-color:#DBDBDB"/>
					<stop  offset="0.7323" style="stop-color:#ECECEC"/>
					<stop  offset="1" style="stop-color:#F2F2F2"/>
				</linearGradient>
				<path style="fill:url(#SVGID_4_);" d="M397.9,194h-13V74.8h13v30.6c2.6-1.9,5.9-2.9,10-2.9c9.5,0,14.3,6.3,14.3,18.9V194h-13
					v-72.5c0-4.1-1.9-6.1-5.7-6.1c-3.7,0-5.6,2-5.6,6.1V194z"/>
			</g>
			<g>
				<linearGradient id="SVGID_5_" gradientUnits="userSpaceOnUse" x1="471.0136" y1="195.4735" x2="471.0136" y2="103.9964">
					<stop  offset="0" style="stop-color:#EAEAEA"/>
					<stop  offset="6.878301e-03" style="stop-color:#E6E6E6"/>
					<stop  offset="3.932634e-02" style="stop-color:#D7D7D7"/>
					<stop  offset="7.815093e-02" style="stop-color:#CFCFCF"/>
					<stop  offset="0.1397" style="stop-color:#CCCCCC"/>
					<stop  offset="0.3731" style="stop-color:#DBDBDB"/>
					<stop  offset="0.7323" style="stop-color:#ECECEC"/>
					<stop  offset="1" style="stop-color:#F2F2F2"/>
				</linearGradient>
				<path style="fill:url(#SVGID_5_);" d="M489.7,176.5c0,12.6-6.2,18.9-18.7,18.9c-12.4,0-18.6-6.3-18.6-18.9V104h13v72.5
					c0,4.1,1.9,6.1,5.6,6.1c3.8,0,5.7-2,5.7-6.1V104h13V176.5z"/>
			</g>
			<g>
				<linearGradient id="SVGID_6_" gradientUnits="userSpaceOnUse" x1="538.4738" y1="194.007" x2="538.4738" y2="102.5734">
					<stop  offset="0" style="stop-color:#EAEAEA"/>
					<stop  offset="6.878301e-03" style="stop-color:#E6E6E6"/>
					<stop  offset="3.932634e-02" style="stop-color:#D7D7D7"/>
					<stop  offset="7.815093e-02" style="stop-color:#CFCFCF"/>
					<stop  offset="0.1397" style="stop-color:#CCCCCC"/>
					<stop  offset="0.3731" style="stop-color:#DBDBDB"/>
					<stop  offset="0.7323" style="stop-color:#ECECEC"/>
					<stop  offset="1" style="stop-color:#F2F2F2"/>
				</linearGradient>
				<path class="st18" d="M532.8,194h-13v-72.5c0-12.6,6.2-18.9,18.6-18.9c12.4,0,18.7,6.3,18.7,18.9V194h-13v-72.5
					c0-4-1.9-6.1-5.6-6.1h-0.1c-3.7,0-5.6,2-5.6,6.1V194z"/>
			</g>
			<g>
				<linearGradient id="SVGID_7_" gradientUnits="userSpaceOnUse" x1="605.9311" y1="195.4735" x2="605.9311" y2="74.8207">
					<stop  offset="0" style="stop-color:#EAEAEA"/>
					<stop  offset="6.878301e-03" style="stop-color:#E6E6E6"/>
					<stop  offset="3.932634e-02" style="stop-color:#D7D7D7"/>
					<stop  offset="7.815093e-02" style="stop-color:#CFCFCF"/>
					<stop  offset="0.1397" style="stop-color:#CCCCCC"/>
					<stop  offset="0.3731" style="stop-color:#DBDBDB"/>
					<stop  offset="0.7323" style="stop-color:#ECECEC"/>
					<stop  offset="1" style="stop-color:#F2F2F2"/>
				</linearGradient>
				<path style="fill:url(#SVGID_7_);" d="M611.6,74.8h13v101.7c0,12.6-6.2,18.9-18.7,18.9c-12.4,0-18.6-6.3-18.6-18.9v-55
					c0-12.6,4.8-18.9,14.3-18.9c4.1,0,7.5,1,10,2.9V74.8z M611.6,121.5c0-4-1.9-6.1-5.6-6.1c-3.8,0-5.7,2-5.7,6.1v55
					c0,4.1,1.9,6.1,5.6,6.1c3.8,0,5.7-2,5.7-6.1V121.5z"/>
			</g>
			<g>
				<linearGradient id="SVGID_8_" gradientUnits="userSpaceOnUse" x1="673.3159" y1="195.4735" x2="673.3159" y2="102.5734">
					<stop  offset="0" style="stop-color:#EAEAEA"/>
					<stop  offset="6.878301e-03" style="stop-color:#E6E6E6"/>
					<stop  offset="3.932634e-02" style="stop-color:#D7D7D7"/>
					<stop  offset="7.815093e-02" style="stop-color:#CFCFCF"/>
					<stop  offset="0.1397" style="stop-color:#CCCCCC"/>
					<stop  offset="0.3731" style="stop-color:#DBDBDB"/>
					<stop  offset="0.7323" style="stop-color:#ECECEC"/>
					<stop  offset="1" style="stop-color:#F2F2F2"/>
				</linearGradient>
				<path class="st20" d="M667.6,155.4v21.1c0,4.1,1.9,6.1,5.6,6.1c3.8,0,5.7-2,5.7-6.1v-12.1h13v12.1c0,12.6-6.2,18.9-18.7,18.9
					c-12.4,0-18.6-6.3-18.6-18.9v-55.1c0-12.6,6.2-18.9,18.6-18.9c12.4,0,18.7,6.3,18.7,18.9v33.9H667.6z M667.6,142.6H679v-21.1
					c0-4-1.9-6.1-5.6-6.1h-0.1c-3.7,0-5.6,2-5.6,6.1V142.6z"/>
			</g>
		</g>
	</g>
	<g>
		<linearGradient id="SVGID_9_" gradientUnits="userSpaceOnUse" x1="737.8516" y1="194.0118" x2="737.8516" y2="102.5768">
			<stop  offset="0" style="stop-color:#EAEAEA"/>
			<stop  offset="6.878301e-03" style="stop-color:#E6E6E6"/>
			<stop  offset="3.932634e-02" style="stop-color:#D7D7D7"/>
			<stop  offset="7.815093e-02" style="stop-color:#CFCFCF"/>
			<stop  offset="0.1397" style="stop-color:#CCCCCC"/>
			<stop  offset="0.3731" style="stop-color:#DBDBDB"/>
			<stop  offset="0.7323" style="stop-color:#ECECEC"/>
			<stop  offset="1" style="stop-color:#F2F2F2"/>
		</linearGradient>
		<path class="st21" d="M753.7,102.6v12.8h-13c-3.7,0,0-4.1,0,0L735,194h-13v-72.5c0-12.6,6.2-18.9,18.6-18.9H753.7z"/>
	</g>
</g>
</svg>
